<?xml version="1.0" encoding="UTF-8" standalone="no"?>
<!DOCTYPE svg PUBLIC "-//W3C//DTD SVG 1.1//EN"
 "http://www.w3.org/Graphics/SVG/1.1/DTD/svg11.dtd">
<!-- Generated by graphviz version 5.0.0 (20220707.1540)
 -->
<!-- Title: dependencies Pages: 1 -->
<svg width="372pt" height="247pt"
 viewBox="0.00 0.00 372.00 246.80" xmlns="http://www.w3.org/2000/svg" xmlns:xlink="http://www.w3.org/1999/xlink">
<g id="graph0" class="graph" transform="scale(1 1) rotate(0) translate(4 242.8)">
<title>dependencies</title>
<polygon fill="white" stroke="transparent" points="-4,4 -4,-242.8 368,-242.8 368,4 -4,4"/>
<text text-anchor="middle" x="182" y="-8.2" font-family="sans-serif" font-size="14.00">dependencies</text>
<g id="clust1" class="cluster">
<title>cluster_SharedModule</title>
<polygon fill="none" stroke="black" stroke-dasharray="1,5" points="8,-32.8 8,-230.8 356,-230.8 356,-32.8 8,-32.8"/>
</g>
<g id="clust2" class="cluster">
<title>cluster_SharedModule_declarations</title>
<polygon fill="none" stroke="black" points="20,-40.8 20,-92.8 344,-92.8 344,-40.8 20,-40.8"/>
</g>
<g id="clust6" class="cluster">
<title>cluster_SharedModule_exports</title>
<polygon fill="none" stroke="black" points="16,-170.8 16,-222.8 348,-222.8 348,-170.8 16,-170.8"/>
</g>
<!-- SettingsDialogComponent -->
<g id="node1" class="node">
<title>SettingsDialogComponent</title>
<polygon fill="#ffffb3" stroke="black" points="336.05,-84.8 171.95,-84.8 171.95,-48.8 336.05,-48.8 336.05,-84.8"/>
<text text-anchor="middle" x="254" y="-62.6" font-family="Times,serif" font-size="14.00">SettingsDialogComponent</text>
</g>
<!-- SharedModule -->
<g id="node3" class="node">
<title>SharedModule</title>
<polygon fill="#8dd3c7" stroke="black" points="141.43,-149.8 138.43,-153.8 117.43,-153.8 114.43,-149.8 42.57,-149.8 42.57,-113.8 141.43,-113.8 141.43,-149.8"/>
<text text-anchor="middle" x="92" y="-127.6" font-family="Times,serif" font-size="14.00">SharedModule</text>
</g>
<!-- SettingsDialogComponent&#45;&gt;SharedModule -->
<g id="edge1" class="edge">
<title>SettingsDialogComponent&#45;&gt;SharedModule</title>
<path fill="none" stroke="black" d="M281.51,-84.82C281.51,-102.17 281.51,-125.8 281.51,-125.8 281.51,-125.8 151.3,-125.8 151.3,-125.8"/>
<polygon fill="black" stroke="black" points="151.3,-122.3 141.3,-125.8 151.3,-129.3 151.3,-122.3"/>
</g>
<!-- ToolbarComponent -->
<g id="node2" class="node">
<title>ToolbarComponent</title>
<polygon fill="#ffffb3" stroke="black" points="153.65,-84.8 28.35,-84.8 28.35,-48.8 153.65,-48.8 153.65,-84.8"/>
<text text-anchor="middle" x="91" y="-62.6" font-family="Times,serif" font-size="14.00">ToolbarComponent</text>
</g>
<!-- ToolbarComponent&#45;&gt;SharedModule -->
<g id="edge2" class="edge">
<title>ToolbarComponent&#45;&gt;SharedModule</title>
<path fill="none" stroke="black" d="M92,-84.91C92,-84.91 92,-103.79 92,-103.79"/>
<polygon fill="black" stroke="black" points="88.5,-103.79 92,-113.79 95.5,-103.79 88.5,-103.79"/>
</g>
<!-- SettingsDialogComponent  -->
<g id="node4" class="node">
<title>SettingsDialogComponent </title>
<polygon fill="#fb8072" stroke="black" points="340.05,-214.8 171.95,-214.8 171.95,-178.8 340.05,-178.8 340.05,-214.8"/>
<text text-anchor="middle" x="256" y="-192.6" font-family="Times,serif" font-size="14.00">SettingsDialogComponent </text>
</g>
<!-- SharedModule&#45;&gt;SettingsDialogComponent  -->
<g id="edge3" class="edge">
<title>SharedModule&#45;&gt;SettingsDialogComponent </title>
<path fill="none" stroke="black" stroke-dasharray="5,2" d="M141.41,-137.8C179.86,-137.8 226.74,-137.8 226.74,-137.8 226.74,-137.8 226.74,-168.78 226.74,-168.78"/>
<polygon fill="black" stroke="black" points="223.24,-168.78 226.74,-178.78 230.24,-168.78 223.24,-168.78"/>
</g>
<!-- ToolbarComponent  -->
<g id="node5" class="node">
<title>ToolbarComponent </title>
<polygon fill="#fb8072" stroke="black" points="153.65,-214.8 24.35,-214.8 24.35,-178.8 153.65,-178.8 153.65,-214.8"/>
<text text-anchor="middle" x="89" y="-192.6" font-family="Times,serif" font-size="14.00">ToolbarComponent </text>
</g>
<!-- SharedModule&#45;&gt;ToolbarComponent  -->
<g id="edge4" class="edge">
<title>SharedModule&#45;&gt;ToolbarComponent </title>
<path fill="none" stroke="black" stroke-dasharray="5,2" d="M92,-149.91C92,-149.91 92,-168.79 92,-168.79"/>
<polygon fill="black" stroke="black" points="88.5,-168.79 92,-178.79 95.5,-168.79 88.5,-168.79"/>
</g>
</g>
</svg>
