<?xml version="1.0" encoding="UTF-8" standalone="no"?>
<!DOCTYPE svg PUBLIC "-//W3C//DTD SVG 1.1//EN"
 "http://www.w3.org/Graphics/SVG/1.1/DTD/svg11.dtd">
<!-- Generated by graphviz version 5.0.0 (20220707.1540)
 -->
<!-- Title: dependencies Pages: 1 -->
<svg width="610pt" height="247pt"
 viewBox="0.00 0.00 610.00 246.80" xmlns="http://www.w3.org/2000/svg" xmlns:xlink="http://www.w3.org/1999/xlink">
<g id="graph0" class="graph" transform="scale(1 1) rotate(0) translate(4 242.8)">
<title>dependencies</title>
<polygon fill="white" stroke="transparent" points="-4,4 -4,-242.8 606,-242.8 606,4 -4,4"/>
<text text-anchor="middle" x="301" y="-8.2" font-family="sans-serif" font-size="14.00">dependencies</text>
<g id="clust1" class="cluster">
<title>cluster_GameModule</title>
<polygon fill="none" stroke="black" stroke-dasharray="1,5" points="8,-32.8 8,-230.8 594,-230.8 594,-32.8 8,-32.8"/>
</g>
<g id="clust7" class="cluster">
<title>cluster_GameModule_exports</title>
<polygon fill="none" stroke="black" points="133,-170.8 133,-222.8 464,-222.8 464,-170.8 133,-170.8"/>
</g>
<g id="clust6" class="cluster">
<title>cluster_GameModule_imports</title>
<polygon fill="none" stroke="black" points="472,-40.8 472,-92.8 586,-92.8 586,-40.8 472,-40.8"/>
</g>
<g id="clust2" class="cluster">
<title>cluster_GameModule_declarations</title>
<polygon fill="none" stroke="black" points="16,-40.8 16,-92.8 464,-92.8 464,-40.8 16,-40.8"/>
</g>
<!-- DiscComponent -->
<g id="node1" class="node">
<title>DiscComponent</title>
<polygon fill="#ffffb3" stroke="black" points="456.49,-84.8 349.51,-84.8 349.51,-48.8 456.49,-48.8 456.49,-84.8"/>
<text text-anchor="middle" x="403" y="-62.6" font-family="Times,serif" font-size="14.00">DiscComponent</text>
</g>
<!-- GameModule -->
<g id="node4" class="node">
<title>GameModule</title>
<polygon fill="#8dd3c7" stroke="black" points="329.48,-149.8 326.48,-153.8 305.48,-153.8 302.48,-149.8 236.52,-149.8 236.52,-113.8 329.48,-113.8 329.48,-149.8"/>
<text text-anchor="middle" x="283" y="-127.6" font-family="Times,serif" font-size="14.00">GameModule</text>
</g>
<!-- DiscComponent&#45;&gt;GameModule -->
<g id="edge1" class="edge">
<title>DiscComponent&#45;&gt;GameModule</title>
<path fill="none" stroke="black" d="M402.98,-84.82C402.98,-102.17 402.98,-125.8 402.98,-125.8 402.98,-125.8 339.73,-125.8 339.73,-125.8"/>
<polygon fill="black" stroke="black" points="339.73,-122.3 329.73,-125.8 339.73,-129.3 339.73,-122.3"/>
</g>
<!-- EndGameDialogComponent -->
<g id="node2" class="node">
<title>EndGameDialogComponent</title>
<polygon fill="#ffffb3" stroke="black" points="331.91,-84.8 156.09,-84.8 156.09,-48.8 331.91,-48.8 331.91,-84.8"/>
<text text-anchor="middle" x="244" y="-62.6" font-family="Times,serif" font-size="14.00">EndGameDialogComponent</text>
</g>
<!-- EndGameDialogComponent&#45;&gt;GameModule -->
<g id="edge2" class="edge">
<title>EndGameDialogComponent&#45;&gt;GameModule</title>
<path fill="none" stroke="black" d="M283,-84.91C283,-84.91 283,-103.79 283,-103.79"/>
<polygon fill="black" stroke="black" points="279.5,-103.79 283,-113.79 286.5,-103.79 279.5,-103.79"/>
</g>
<!-- GameComponent -->
<g id="node3" class="node">
<title>GameComponent</title>
<polygon fill="#ffffb3" stroke="black" points="138.26,-84.8 23.74,-84.8 23.74,-48.8 138.26,-48.8 138.26,-84.8"/>
<text text-anchor="middle" x="81" y="-62.6" font-family="Times,serif" font-size="14.00">GameComponent</text>
</g>
<!-- GameComponent&#45;&gt;GameModule -->
<g id="edge3" class="edge">
<title>GameComponent&#45;&gt;GameModule</title>
<path fill="none" stroke="black" d="M81,-84.91C81,-104.14 81,-131.8 81,-131.8 81,-131.8 226.4,-131.8 226.4,-131.8"/>
<polygon fill="black" stroke="black" points="226.4,-135.3 236.4,-131.8 226.4,-128.3 226.4,-135.3"/>
</g>
<!-- EndGameDialogComponent  -->
<g id="node6" class="node">
<title>EndGameDialogComponent </title>
<polygon fill="#fb8072" stroke="black" points="456.41,-214.8 277.59,-214.8 277.59,-178.8 456.41,-178.8 456.41,-214.8"/>
<text text-anchor="middle" x="367" y="-192.6" font-family="Times,serif" font-size="14.00">EndGameDialogComponent </text>
</g>
<!-- GameModule&#45;&gt;EndGameDialogComponent  -->
<g id="edge5" class="edge">
<title>GameModule&#45;&gt;EndGameDialogComponent </title>
<path fill="none" stroke="black" stroke-dasharray="5,2" d="M303.52,-149.91C303.52,-149.91 303.52,-168.79 303.52,-168.79"/>
<polygon fill="black" stroke="black" points="300.02,-168.79 303.52,-178.79 307.02,-168.79 300.02,-168.79"/>
</g>
<!-- GameComponent  -->
<g id="node7" class="node">
<title>GameComponent </title>
<polygon fill="#fb8072" stroke="black" points="259.26,-214.8 140.74,-214.8 140.74,-178.8 259.26,-178.8 259.26,-214.8"/>
<text text-anchor="middle" x="200" y="-192.6" font-family="Times,serif" font-size="14.00">GameComponent </text>
</g>
<!-- GameModule&#45;&gt;GameComponent  -->
<g id="edge6" class="edge">
<title>GameModule&#45;&gt;GameComponent </title>
<path fill="none" stroke="black" stroke-dasharray="5,2" d="M247.82,-149.91C247.82,-149.91 247.82,-168.79 247.82,-168.79"/>
<polygon fill="black" stroke="black" points="244.32,-168.79 247.82,-178.79 251.32,-168.79 244.32,-168.79"/>
</g>
<!-- SharedModule -->
<g id="node5" class="node">
<title>SharedModule</title>
<polygon fill="#8dd3c7" stroke="black" points="578.43,-84.8 575.43,-88.8 554.43,-88.8 551.43,-84.8 479.57,-84.8 479.57,-48.8 578.43,-48.8 578.43,-84.8"/>
<text text-anchor="middle" x="529" y="-62.6" font-family="Times,serif" font-size="14.00">SharedModule</text>
</g>
<!-- SharedModule&#45;&gt;GameModule -->
<g id="edge4" class="edge">
<title>SharedModule&#45;&gt;GameModule</title>
<path fill="none" stroke="black" d="M529,-85.08C529,-106.12 529,-137.8 529,-137.8 529,-137.8 339.56,-137.8 339.56,-137.8"/>
<polygon fill="black" stroke="black" points="339.56,-134.3 329.56,-137.8 339.56,-141.3 339.56,-134.3"/>
</g>
</g>
</svg>
