<?xml version="1.0" encoding="UTF-8" standalone="no"?>
<!DOCTYPE svg PUBLIC "-//W3C//DTD SVG 1.1//EN"
 "http://www.w3.org/Graphics/SVG/1.1/DTD/svg11.dtd">
<!-- Generated by graphviz version 5.0.0 (20220707.1540)
 -->
<!-- Title: dependencies Pages: 1 -->
<svg width="294pt" height="174pt"
 viewBox="0.00 0.00 294.00 173.80" xmlns="http://www.w3.org/2000/svg" xmlns:xlink="http://www.w3.org/1999/xlink">
<g id="graph0" class="graph" transform="scale(1 1) rotate(0) translate(4 169.8)">
<title>dependencies</title>
<polygon fill="white" stroke="transparent" points="-4,4 -4,-169.8 290,-169.8 290,4 -4,4"/>
<text text-anchor="middle" x="143" y="-8.2" font-family="sans-serif" font-size="14.00">dependencies</text>
<g id="clust1" class="cluster">
<title>cluster_HomeModule</title>
<polygon fill="none" stroke="black" stroke-dasharray="1,5" points="8,-32.8 8,-157.8 278,-157.8 278,-32.8 8,-32.8"/>
</g>
<g id="clust4" class="cluster">
<title>cluster_HomeModule_imports</title>
<polygon fill="none" stroke="black" points="156,-40.8 156,-92.8 270,-92.8 270,-40.8 156,-40.8"/>
</g>
<g id="clust2" class="cluster">
<title>cluster_HomeModule_declarations</title>
<polygon fill="none" stroke="black" points="16,-40.8 16,-92.8 148,-92.8 148,-40.8 16,-40.8"/>
</g>
<!-- HomeComponent -->
<g id="node1" class="node">
<title>HomeComponent</title>
<polygon fill="#ffffb3" stroke="black" points="139.55,-84.8 24.45,-84.8 24.45,-48.8 139.55,-48.8 139.55,-84.8"/>
<text text-anchor="middle" x="82" y="-62.6" font-family="Times,serif" font-size="14.00">HomeComponent</text>
</g>
<!-- HomeModule -->
<g id="node2" class="node">
<title>HomeModule</title>
<polygon fill="#8dd3c7" stroke="black" points="193.77,-149.8 190.77,-153.8 169.77,-153.8 166.77,-149.8 100.23,-149.8 100.23,-113.8 193.77,-113.8 193.77,-149.8"/>
<text text-anchor="middle" x="147" y="-127.6" font-family="Times,serif" font-size="14.00">HomeModule</text>
</g>
<!-- HomeComponent&#45;&gt;HomeModule -->
<g id="edge1" class="edge">
<title>HomeComponent&#45;&gt;HomeModule</title>
<path fill="none" stroke="black" d="M119.94,-84.91C119.94,-84.91 119.94,-103.79 119.94,-103.79"/>
<polygon fill="black" stroke="black" points="116.44,-103.79 119.94,-113.79 123.44,-103.79 116.44,-103.79"/>
</g>
<!-- SharedModule -->
<g id="node3" class="node">
<title>SharedModule</title>
<polygon fill="#8dd3c7" stroke="black" points="262.43,-84.8 259.43,-88.8 238.43,-88.8 235.43,-84.8 163.57,-84.8 163.57,-48.8 262.43,-48.8 262.43,-84.8"/>
<text text-anchor="middle" x="213" y="-62.6" font-family="Times,serif" font-size="14.00">SharedModule</text>
</g>
<!-- SharedModule&#45;&gt;HomeModule -->
<g id="edge2" class="edge">
<title>SharedModule&#45;&gt;HomeModule</title>
<path fill="none" stroke="black" d="M178.83,-84.91C178.83,-84.91 178.83,-103.79 178.83,-103.79"/>
<polygon fill="black" stroke="black" points="175.33,-103.79 178.83,-113.79 182.33,-103.79 175.33,-103.79"/>
</g>
</g>
</svg>
