<?xml version="1.0" encoding="UTF-8" standalone="no"?>
<!DOCTYPE svg PUBLIC "-//W3C//DTD SVG 1.1//EN"
 "http://www.w3.org/Graphics/SVG/1.1/DTD/svg11.dtd">
<!-- Generated by graphviz version 5.0.0 (20220707.1540)
 -->
<!-- Title: dependencies Pages: 1 -->
<svg width="426pt" height="247pt"
 viewBox="0.00 0.00 426.00 246.80" xmlns="http://www.w3.org/2000/svg" xmlns:xlink="http://www.w3.org/1999/xlink">
<g id="graph0" class="graph" transform="scale(1 1) rotate(0) translate(4 242.8)">
<title>dependencies</title>
<polygon fill="white" stroke="transparent" points="-4,4 -4,-242.8 422,-242.8 422,4 -4,4"/>
<text text-anchor="middle" x="209" y="-8.2" font-family="sans-serif" font-size="14.00">dependencies</text>
<g id="clust1" class="cluster">
<title>cluster_AppModule</title>
<polygon fill="none" stroke="black" stroke-dasharray="1,5" points="8,-32.8 8,-230.8 410,-230.8 410,-32.8 8,-32.8"/>
</g>
<g id="clust2" class="cluster">
<title>cluster_AppModule_declarations</title>
<polygon fill="none" stroke="black" points="280,-40.8 280,-92.8 402,-92.8 402,-40.8 280,-40.8"/>
</g>
<g id="clust6" class="cluster">
<title>cluster_AppModule_bootstrap</title>
<polygon fill="none" stroke="black" points="138,-170.8 138,-222.8 262,-222.8 262,-170.8 138,-170.8"/>
</g>
<g id="clust4" class="cluster">
<title>cluster_AppModule_imports</title>
<polygon fill="none" stroke="black" points="16,-40.8 16,-92.8 272,-92.8 272,-40.8 16,-40.8"/>
</g>
<!-- AppComponent -->
<g id="node1" class="node">
<title>AppComponent</title>
<polygon fill="#ffffb3" stroke="black" points="393.94,-84.8 288.06,-84.8 288.06,-48.8 393.94,-48.8 393.94,-84.8"/>
<text text-anchor="middle" x="341" y="-62.6" font-family="Times,serif" font-size="14.00">AppComponent</text>
</g>
<!-- AppModule -->
<g id="node2" class="node">
<title>AppModule</title>
<polygon fill="#8dd3c7" stroke="black" points="241.66,-149.8 238.66,-153.8 217.66,-153.8 214.66,-149.8 158.34,-149.8 158.34,-113.8 241.66,-113.8 241.66,-149.8"/>
<text text-anchor="middle" x="200" y="-127.6" font-family="Times,serif" font-size="14.00">AppModule</text>
</g>
<!-- AppComponent&#45;&gt;AppModule -->
<g id="edge1" class="edge">
<title>AppComponent&#45;&gt;AppModule</title>
<path fill="none" stroke="black" d="M341,-84.91C341,-104.14 341,-131.8 341,-131.8 341,-131.8 251.92,-131.8 251.92,-131.8"/>
<polygon fill="black" stroke="black" points="251.92,-128.3 241.92,-131.8 251.92,-135.3 251.92,-128.3"/>
</g>
<!-- AppComponent  -->
<g id="node5" class="node">
<title>AppComponent </title>
<polygon fill="#80b1d3" stroke="black" points="254.44,-214.8 145.56,-214.8 145.56,-178.8 254.44,-178.8 254.44,-214.8"/>
<text text-anchor="middle" x="200" y="-192.6" font-family="Times,serif" font-size="14.00">AppComponent </text>
</g>
<!-- AppModule&#45;&gt;AppComponent  -->
<g id="edge4" class="edge">
<title>AppModule&#45;&gt;AppComponent </title>
<path fill="none" stroke="black" stroke-dasharray="1,5" d="M200,-149.91C200,-149.91 200,-168.79 200,-168.79"/>
<polygon fill="black" stroke="black" points="196.5,-168.79 200,-178.79 203.5,-168.79 196.5,-168.79"/>
</g>
<!-- AppRoutingModule -->
<g id="node3" class="node">
<title>AppRoutingModule</title>
<polygon fill="#8dd3c7" stroke="black" points="264.28,-84.8 261.28,-88.8 240.28,-88.8 237.28,-84.8 135.72,-84.8 135.72,-48.8 264.28,-48.8 264.28,-84.8"/>
<text text-anchor="middle" x="200" y="-62.6" font-family="Times,serif" font-size="14.00">AppRoutingModule</text>
</g>
<!-- AppRoutingModule&#45;&gt;AppModule -->
<g id="edge2" class="edge">
<title>AppRoutingModule&#45;&gt;AppModule</title>
<path fill="none" stroke="black" d="M200,-84.91C200,-84.91 200,-103.79 200,-103.79"/>
<polygon fill="black" stroke="black" points="196.5,-103.79 200,-113.79 203.5,-103.79 196.5,-103.79"/>
</g>
<!-- HomeModule -->
<g id="node4" class="node">
<title>HomeModule</title>
<polygon fill="#8dd3c7" stroke="black" points="117.77,-84.8 114.77,-88.8 93.77,-88.8 90.77,-84.8 24.23,-84.8 24.23,-48.8 117.77,-48.8 117.77,-84.8"/>
<text text-anchor="middle" x="71" y="-62.6" font-family="Times,serif" font-size="14.00">HomeModule</text>
</g>
<!-- HomeModule&#45;&gt;AppModule -->
<g id="edge3" class="edge">
<title>HomeModule&#45;&gt;AppModule</title>
<path fill="none" stroke="black" d="M71,-84.91C71,-104.14 71,-131.8 71,-131.8 71,-131.8 148.12,-131.8 148.12,-131.8"/>
<polygon fill="black" stroke="black" points="148.12,-135.3 158.12,-131.8 148.12,-128.3 148.12,-135.3"/>
</g>
</g>
</svg>
