<svg xmlns="http://www.w3.org/2000/svg" xmlns:xlink="http://www.w3.org/1999/xlink" viewBox="0 0 230.24 221.34">
  <defs>
    <style>
      .cls-1 {
        isolation: isolate;
      }

      .cls-2 {
        fill: #25725d;
      }

      .cls-3 {
        fill: #e3c7cd;
      }

      .cls-12, .cls-3 {
        mix-blend-mode: multiply;
      }

      .cls-4 {
        fill: url(#Áåçûìÿííûé_ãðàäèåíò_112);
      }

      .cls-5 {
        fill: url(#Áåçûìÿííûé_ãðàäèåíò_24);
      }

      .cls-6, .cls-7 {
        fill: #fff;
      }

      .cls-6 {
        opacity: 0.5;
      }

      .cls-8 {
        fill: url(#Áåçûìÿííûé_ãðàäèåíò_115);
      }

      .cls-9 {
        fill: url(#Áåçûìÿííûé_ãðàäèåíò_115-2);
      }

      .cls-10 {
        fill: url(#Áåçûìÿííûé_ãðàäèåíò_31);
      }

      .cls-11 {
        fill: url(#Áåçûìÿííûé_ãðàäèåíò_20);
      }

      .cls-12 {
        opacity: 0.7;
        fill: url(#Áåçûìÿííûé_ãðàäèåíò_22);
      }

      .cls-13 {
        fill: url(#Áåçûìÿííûé_ãðàäèåíò_75);
      }

      .cls-14 {
        fill: url(#Áåçûìÿííûé_ãðàäèåíò_75-2);
      }

      .cls-15 {
        fill: url(#Áåçûìÿííûé_ãðàäèåíò_109);
      }

      .cls-16 {
        fill: url(#Áåçûìÿííûé_ãðàäèåíò_109-2);
      }

      .cls-17 {
        fill: #fffcf7;
      }

      .cls-18 {
        fill: #ffd199;
      }

      .cls-19 {
        fill: #cd3d3e;
      }

      .cls-20 {
        fill: url(#Áåçûìÿííûé_ãðàäèåíò_109-3);
      }

      .cls-21 {
        fill: url(#Áåçûìÿííûé_ãðàäèåíò_109-4);
      }

      .cls-22 {
        fill: #ff6f66;
      }

      .cls-23 {
        fill: url(#Áåçûìÿííûé_ãðàäèåíò_109-5);
      }

      .cls-24 {
        fill: url(#Áåçûìÿííûé_ãðàäèåíò_109-6);
      }

      .cls-25 {
        fill: url(#Áåçûìÿííûé_ãðàäèåíò_109-7);
      }

      .cls-26 {
        fill: url(#Áåçûìÿííûé_ãðàäèåíò_109-8);
      }

      .cls-27 {
        fill: url(#Áåçûìÿííûé_ãðàäèåíò_109-9);
      }

      .cls-28 {
        fill: url(#Áåçûìÿííûé_ãðàäèåíò_109-10);
      }

      .cls-29 {
        fill: url(#Áåçûìÿííûé_ãðàäèåíò_109-11);
      }

      .cls-30 {
        fill: url(#Áåçûìÿííûé_ãðàäèåíò_109-12);
      }

      .cls-31 {
        fill: url(#Áåçûìÿííûé_ãðàäèåíò_109-13);
      }

      .cls-32 {
        fill: url(#Áåçûìÿííûé_ãðàäèåíò_109-14);
      }

      .cls-33 {
        fill: url(#Áåçûìÿííûé_ãðàäèåíò_115-3);
      }

      .cls-34 {
        fill: url(#Áåçûìÿííûé_ãðàäèåíò_115-4);
      }

      .cls-35 {
        fill: #79c5ff;
      }

      .cls-36 {
        fill: url(#Áåçûìÿííûé_ãðàäèåíò_115-5);
      }

      .cls-37 {
        fill: url(#Áåçûìÿííûé_ãðàäèåíò_115-6);
      }

      .cls-38 {
        fill: url(#Áåçûìÿííûé_ãðàäèåíò_115-7);
      }

      .cls-39 {
        fill: url(#Áåçûìÿííûé_ãðàäèåíò_115-8);
      }

      .cls-40 {
        fill: url(#Áåçûìÿííûé_ãðàäèåíò_112-2);
      }

      .cls-41 {
        fill: url(#Áåçûìÿííûé_ãðàäèåíò_112-3);
      }

      .cls-42 {
        fill: #cfff9d;
      }

      .cls-43 {
        fill: url(#Áåçûìÿííûé_ãðàäèåíò_112-4);
      }

      .cls-44 {
        fill: url(#Áåçûìÿííûé_ãðàäèåíò_112-5);
      }

      .cls-45 {
        fill: url(#Áåçûìÿííûé_ãðàäèåíò_112-6);
      }

      .cls-46 {
        fill: url(#Áåçûìÿííûé_ãðàäèåíò_112-7);
      }

      .cls-47 {
        fill: url(#Áåçûìÿííûé_ãðàäèåíò_112-8);
      }

      .cls-48 {
        fill: url(#Áåçûìÿííûé_ãðàäèåíò_112-9);
      }

      .cls-49 {
        fill: url(#Áåçûìÿííûé_ãðàäèåíò_112-10);
      }

      .cls-50 {
        fill: #4c4c4b;
      }

      .cls-51 {
        fill: #5f5f5e;
      }

      .cls-52 {
        fill: #666;
      }

      .cls-53 {
        fill: #797979;
      }

      .cls-54 {
        fill: #343432;
      }

      .cls-55 {
        fill: #474745;
      }

      .cls-56 {
        fill: #262625;
      }
    </style>
    <linearGradient id="Áåçûìÿííûé_ãðàäèåíò_112" data-name="Áåçûìÿííûé ãðàäèåíò 112" x1="88.81" y1="38.26" x2="118.19" y2="38.26" gradientUnits="userSpaceOnUse">
      <stop offset="0" stop-color="#9cc474"/>
      <stop offset="0.51" stop-color="#85a264"/>
      <stop offset="1" stop-color="#5c7940"/>
    </linearGradient>
    <linearGradient id="Áåçûìÿííûé_ãðàäèåíò_24" data-name="Áåçûìÿííûé ãðàäèåíò 24" x1="91.99" y1="4.6" x2="118.15" y2="16.29" gradientUnits="userSpaceOnUse">
      <stop offset="0" stop-color="#9cc474"/>
      <stop offset="0.56" stop-color="#85a264"/>
      <stop offset="0.82" stop-color="#5c7940"/>
    </linearGradient>
    <linearGradient id="Áåçûìÿííûé_ãðàäèåíò_115" data-name="Áåçûìÿííûé ãðàäèåíò 115" x1="138.72" y1="43.07" x2="168.1" y2="43.07" gradientUnits="userSpaceOnUse">
      <stop offset="0" stop-color="#63b7ff"/>
      <stop offset="0.51" stop-color="#53a0d8"/>
      <stop offset="1" stop-color="#4989bb"/>
    </linearGradient>
    <linearGradient id="Áåçûìÿííûé_ãðàäèåíò_115-2" x1="145.44" y1="8.97" x2="161.42" y2="20.16" gradientTransform="translate(129.95 -137.75) rotate(75.81)" xlink:href="#Áåçûìÿííûé_ãðàäèåíò_115"/>
    <linearGradient id="Áåçûìÿííûé_ãðàäèåíò_31" data-name="Áåçûìÿííûé ãðàäèåíò 31" x1="160.63" y1="65" x2="190" y2="65" gradientUnits="userSpaceOnUse">
      <stop offset="0" stop-color="#ffe3c2"/>
      <stop offset="0.49" stop-color="#ffe3c2"/>
      <stop offset="0.54" stop-color="#ffdbb1"/>
      <stop offset="0.62" stop-color="#ffd19c"/>
      <stop offset="0.72" stop-color="#ffca8d"/>
      <stop offset="0.83" stop-color="#ffc684"/>
      <stop offset="1" stop-color="#ffc581"/>
    </linearGradient>
    <linearGradient id="Áåçûìÿííûé_ãðàäèåíò_20" data-name="Áåçûìÿííûé ãðàäèåíò 20" x1="170.7" y1="31.51" x2="182.74" y2="44.47" gradientTransform="translate(170.39 -142.53) rotate(76.66)" gradientUnits="userSpaceOnUse">
      <stop offset="0.11" stop-color="#fff3e3"/>
      <stop offset="0.52" stop-color="#ffe3c2"/>
      <stop offset="0.63" stop-color="#ffe0bb"/>
      <stop offset="0.78" stop-color="#ffd7a9"/>
      <stop offset="0.95" stop-color="#ffc98b"/>
      <stop offset="1" stop-color="#ffc581"/>
    </linearGradient>
    <linearGradient id="Áåçûìÿííûé_ãðàäèåíò_22" data-name="Áåçûìÿííûé ãðàäèåíò 22" x1="168.69" y1="30.74" x2="181.94" y2="30.74" gradientUnits="userSpaceOnUse">
      <stop offset="0" stop-color="#fff"/>
      <stop offset="1" stop-color="#ffd199"/>
    </linearGradient>
    <linearGradient id="Áåçûìÿííûé_ãðàäèåíò_75" data-name="Áåçûìÿííûé ãðàäèåíò 75" x1="60.24" y1="59.79" x2="89.62" y2="59.79" gradientUnits="userSpaceOnUse">
      <stop offset="0" stop-color="#8c8b89"/>
      <stop offset="0.49" stop-color="#5d5c5b"/>
      <stop offset="0.9" stop-color="#4f4e4a"/>
    </linearGradient>
    <linearGradient id="Áåçûìÿííûé_ãðàäèåíò_75-2" x1="62.66" y1="22.5" x2="85.81" y2="39.05" xlink:href="#Áåçûìÿííûé_ãðàäèåíò_75"/>
    <linearGradient id="Áåçûìÿííûé_ãðàäèåíò_109" data-name="Áåçûìÿííûé ãðàäèåíò 109" x1="106.12" y1="63.04" x2="135.49" y2="63.04" gradientUnits="userSpaceOnUse">
      <stop offset="0" stop-color="#fb5b50"/>
      <stop offset="0.51" stop-color="#d85046"/>
      <stop offset="1" stop-color="#b8443c"/>
    </linearGradient>
    <linearGradient id="Áåçûìÿííûé_ãðàäèåíò_109-2" x1="112.04" y1="28.39" x2="132.88" y2="42.98" gradientTransform="translate(22.22 -43.37) rotate(22.36)" xlink:href="#Áåçûìÿííûé_ãðàäèåíò_109"/>
    <linearGradient id="Áåçûìÿííûé_ãðàäèåíò_109-3" x1="31.55" y1="113.66" x2="97.75" y2="113.66" xlink:href="#Áåçûìÿííûé_ãðàäèåíò_109"/>
    <linearGradient id="Áåçûìÿííûé_ãðàäèåíò_109-4" x1="42.8" y1="95.08" x2="86.51" y2="95.08" xlink:href="#Áåçûìÿííûé_ãðàäèåíò_109"/>
    <linearGradient id="Áåçûìÿííûé_ãðàäèåíò_109-5" x1="43.97" y1="102.29" x2="85.34" y2="102.29" xlink:href="#Áåçûìÿííûé_ãðàäèåíò_109"/>
    <linearGradient id="Áåçûìÿííûé_ãðàäèåíò_109-6" x1="2.01" y1="149.89" x2="68.21" y2="149.89" xlink:href="#Áåçûìÿííûé_ãðàäèåíò_109"/>
    <linearGradient id="Áåçûìÿííûé_ãðàäèåíò_109-7" x1="13.26" y1="131.31" x2="56.97" y2="131.31" xlink:href="#Áåçûìÿííûé_ãðàäèåíò_109"/>
    <linearGradient id="Áåçûìÿííûé_ãðàäèåíò_109-8" x1="14.43" y1="138.52" x2="55.79" y2="138.52" xlink:href="#Áåçûìÿííûé_ãðàäèåíò_109"/>
    <linearGradient id="Áåçûìÿííûé_ãðàäèåíò_109-9" x1="0" y1="123.39" x2="66.19" y2="123.39" xlink:href="#Áåçûìÿííûé_ãðàäèåíò_109"/>
    <linearGradient id="Áåçûìÿííûé_ãðàäèåíò_109-10" x1="11.25" y1="104.81" x2="54.96" y2="104.81" xlink:href="#Áåçûìÿííûé_ãðàäèåíò_109"/>
    <linearGradient id="Áåçûìÿííûé_ãðàäèåíò_109-11" x1="12.41" y1="112.03" x2="53.78" y2="112.03" xlink:href="#Áåçûìÿííûé_ãðàäèåíò_109"/>
    <linearGradient id="Áåçûìÿííûé_ãðàäèåíò_109-12" x1="12.37" y1="104.34" x2="78.56" y2="104.34" xlink:href="#Áåçûìÿííûé_ãðàäèåíò_109"/>
    <linearGradient id="Áåçûìÿííûé_ãðàäèåíò_109-13" x1="23.62" y1="85.76" x2="67.32" y2="85.76" xlink:href="#Áåçûìÿííûé_ãðàäèåíò_109"/>
    <linearGradient id="Áåçûìÿííûé_ãðàäèåíò_109-14" x1="24.78" y1="92.97" x2="66.15" y2="92.97" xlink:href="#Áåçûìÿííûé_ãðàäèåíò_109"/>
    <linearGradient id="Áåçûìÿííûé_ãðàäèåíò_115-3" x1="97.03" y1="108.05" x2="163.23" y2="108.05" xlink:href="#Áåçûìÿííûé_ãðàäèåíò_115"/>
    <linearGradient id="Áåçûìÿííûé_ãðàäèåíò_115-4" x1="108.28" y1="89.46" x2="151.99" y2="89.46" xlink:href="#Áåçûìÿííûé_ãðàäèåíò_115"/>
    <linearGradient id="Áåçûìÿííûé_ãðàäèåíò_115-5" x1="109.45" y1="96.68" x2="150.81" y2="96.68" xlink:href="#Áåçûìÿííûé_ãðàäèåíò_115"/>
    <linearGradient id="Áåçûìÿííûé_ãðàäèåíò_115-6" x1="80.67" y1="-45.98" x2="146.87" y2="-45.98" gradientTransform="matrix(0.95, 0.32, -0.32, 0.95, 45.22, 120.32)" xlink:href="#Áåçûìÿííûé_ãðàäèåíò_115"/>
    <linearGradient id="Áåçûìÿííûé_ãðàäèåíò_115-7" x1="91.92" y1="-64.56" x2="135.63" y2="-64.56" gradientTransform="matrix(0.95, 0.32, -0.32, 0.95, 45.22, 120.32)" xlink:href="#Áåçûìÿííûé_ãðàäèåíò_115"/>
    <linearGradient id="Áåçûìÿííûé_ãðàäèåíò_115-8" x1="93.09" y1="-57.34" x2="134.45" y2="-57.34" gradientTransform="matrix(0, 1, -1, 0, 114.05, -11.17)" xlink:href="#Áåçûìÿííûé_ãðàäèåíò_115"/>
    <linearGradient id="Áåçûìÿííûé_ãðàäèåíò_112-2" x1="76.98" y1="153.68" x2="143.18" y2="153.68" xlink:href="#Áåçûìÿííûé_ãðàäèåíò_112"/>
    <linearGradient id="Áåçûìÿííûé_ãðàäèåíò_112-3" x1="88.23" y1="135.1" x2="131.94" y2="135.1" xlink:href="#Áåçûìÿííûé_ãðàäèåíò_112"/>
    <linearGradient id="Áåçûìÿííûé_ãðàäèåíò_112-4" x1="89.4" y1="142.32" x2="130.76" y2="142.32" xlink:href="#Áåçûìÿííûé_ãðàäèåíò_112"/>
    <linearGradient id="Áåçûìÿííûé_ãðàäèåíò_112-5" x1="92.61" y1="146.51" x2="158.8" y2="146.51" xlink:href="#Áåçûìÿííûé_ãðàäèåíò_112"/>
    <linearGradient id="Áåçûìÿííûé_ãðàäèåíò_112-6" x1="103.85" y1="127.93" x2="147.56" y2="127.93" xlink:href="#Áåçûìÿííûé_ãðàäèåíò_112"/>
    <linearGradient id="Áåçûìÿííûé_ãðàäèåíò_112-7" x1="105.02" y1="135.14" x2="146.39" y2="135.14" xlink:href="#Áåçûìÿííûé_ãðàäèåíò_112"/>
    <linearGradient id="Áåçûìÿííûé_ãðàäèåíò_112-8" x1="76.98" y1="137.13" x2="143.18" y2="137.13" xlink:href="#Áåçûìÿííûé_ãðàäèåíò_112"/>
    <linearGradient id="Áåçûìÿííûé_ãðàäèåíò_112-9" x1="88.23" y1="118.55" x2="131.94" y2="118.55" xlink:href="#Áåçûìÿííûé_ãðàäèåíò_112"/>
    <linearGradient id="Áåçûìÿííûé_ãðàäèåíò_112-10" x1="89.4" y1="125.76" x2="130.76" y2="125.76" xlink:href="#Áåçûìÿííûé_ãðàäèåíò_112"/>
  </defs>
  <g class="cls-1">
    <g id="BG">
      <g id="Objects">
        <path class="cls-2" d="M230.24,8.25c-58-1.4-116.71,10.67-161,36.22-83.9,48.44-83.9,127,0,175.42.85.5,1.71,1,2.58,1.45H230.24Z"/>
      </g>
    </g>
    <g id="Objects-2" data-name="Objects">
      <g>
        <g>
          <ellipse class="cls-3" cx="112.89" cy="53.75" rx="23.57" ry="10.16"/>
          <path class="cls-4" d="M114.26,34.16l-.45-.81a22.29,22.29,0,0,1-2.92-5.57,16.26,16.26,0,0,1,.44-11.88l.42-1H95.26l.41,1a16.31,16.31,0,0,1,.45,11.88,22.66,22.66,0,0,1-2.93,5.57l-.45.81a30.65,30.65,0,0,0-3.93,15V53.1c0,2.17,1.44,4.34,4.31,6a23,23,0,0,0,20.77,0c2.87-1.66,4.3-3.83,4.3-6V49.16A30.54,30.54,0,0,0,114.26,34.16Z"/>
          <circle class="cls-5" cx="103.52" cy="9.75" r="9.75"/>
          <path class="cls-6" d="M110.13,4c0,2-3,3.61-6.63,3.61S96.88,6,96.88,4s3-3.61,6.62-3.61S110.13,2,110.13,4Z"/>
          <path class="cls-7" d="M100,2.94a1.18,1.18,0,0,1-2.35,0,1.18,1.18,0,0,1,2.35,0Z"/>
          <path class="cls-7" d="M98.47,4.83a.42.42,0,0,1-.84,0,.42.42,0,0,1,.84,0Z"/>
        </g>
        <g>
          <ellipse class="cls-3" cx="162.8" cy="58.57" rx="23.57" ry="10.16"/>
          <path class="cls-8" d="M164.17,39l-.45-.81a22.6,22.6,0,0,1-2.93-5.56,16.31,16.31,0,0,1,.45-11.88l.42-1h-16.5l.42,1A16.31,16.31,0,0,1,146,32.6a22.6,22.6,0,0,1-2.93,5.56l-.45.81a30.57,30.57,0,0,0-3.93,15v4c0,2.17,1.44,4.34,4.3,6a22.92,22.92,0,0,0,20.78,0c2.86-1.65,4.3-3.82,4.3-6V54A30.57,30.57,0,0,0,164.17,39Z"/>
          <circle class="cls-9" cx="153.43" cy="14.57" r="9.75" transform="translate(101.7 159.75) rotate(-75.81)"/>
          <ellipse class="cls-6" cx="153.41" cy="8.81" rx="6.63" ry="3.61"/>
          <ellipse class="cls-7" cx="148.71" cy="7.75" rx="1.17" ry="1.07"/>
          <path class="cls-7" d="M148.38,9.65a.42.42,0,1,1-.42-.38A.4.4,0,0,1,148.38,9.65Z"/>
        </g>
        <g>
          <ellipse class="cls-3" cx="185.09" cy="80.94" rx="23.57" ry="10.16"/>
          <path class="cls-10" d="M186.08,60.9l-.46-.81a23,23,0,0,1-2.92-5.57,16.26,16.26,0,0,1,.45-11.88l.41-1H167.07l.41,1a16.26,16.26,0,0,1,.45,11.88A23,23,0,0,1,165,60.09l-.46.81a30.64,30.64,0,0,0-3.92,15v3.94c0,2.17,1.43,4.34,4.3,6a23,23,0,0,0,20.77,0c2.87-1.66,4.3-3.83,4.3-6V75.9A30.64,30.64,0,0,0,186.08,60.9Z"/>
          <circle class="cls-11" cx="175.33" cy="36.49" r="9.75" transform="translate(99.37 198.68) rotate(-76.66)"/>
          <path class="cls-12" d="M181.94,30.74c0,2-3,3.61-6.63,3.61s-6.62-1.62-6.62-3.61,3-3.61,6.62-3.61S181.94,28.75,181.94,30.74Z"/>
          <ellipse class="cls-7" cx="170.62" cy="29.68" rx="1.17" ry="1.07"/>
          <path class="cls-7" d="M170.28,31.57a.42.42,0,0,1-.84,0,.42.42,0,0,1,.84,0Z"/>
        </g>
        <g>
          <ellipse class="cls-3" cx="84.32" cy="75.28" rx="23.57" ry="10.16"/>
          <path class="cls-13" d="M85.69,55.68l-.45-.81a22.6,22.6,0,0,1-2.93-5.56,16.31,16.31,0,0,1,.45-11.88l.42-1H66.68l.42,1a16.31,16.31,0,0,1,.45,11.88,22.6,22.6,0,0,1-2.93,5.56l-.45.81a30.57,30.57,0,0,0-3.93,15v3.95c0,2.17,1.44,4.34,4.3,6a21.21,21.21,0,0,0,10.39,2.49,21.21,21.21,0,0,0,10.39-2.49c2.86-1.65,4.3-3.82,4.3-6V70.68A30.57,30.57,0,0,0,85.69,55.68Z"/>
          <circle class="cls-14" cx="74.95" cy="31.28" r="9.75"/>
          <path class="cls-6" d="M81.55,25.53c0,2-3,3.6-6.62,3.6s-6.63-1.61-6.63-3.6,3-3.61,6.63-3.61S81.55,23.53,81.55,25.53Z"/>
          <path class="cls-7" d="M71.41,24.46a1.18,1.18,0,1,1-1.18-1.07A1.13,1.13,0,0,1,71.41,24.46Z"/>
          <ellipse class="cls-7" cx="69.48" cy="26.36" rx="0.42" ry="0.38"/>
        </g>
        <g>
          <ellipse class="cls-3" cx="130.58" cy="79.23" rx="23.57" ry="10.16"/>
          <path class="cls-15" d="M131.57,58.94l-.46-.81a22.91,22.91,0,0,1-2.92-5.56,16.26,16.26,0,0,1,.45-11.88l.41-1H112.56l.41,1a16.26,16.26,0,0,1,.45,11.88,22.91,22.91,0,0,1-2.92,5.56l-.46.81a30.67,30.67,0,0,0-3.92,15v4c0,2.17,1.43,4.34,4.3,6a22.9,22.9,0,0,0,20.77,0c2.87-1.65,4.3-3.82,4.3-6v-4A30.67,30.67,0,0,0,131.57,58.94Z"/>
          <circle class="cls-16" cx="120.82" cy="34.54" r="9.75" transform="translate(-4.05 48.56) rotate(-22.36)"/>
          <path class="cls-6" d="M127.43,28.78c0,2-3,3.61-6.63,3.61s-6.62-1.61-6.62-3.61,3-3.6,6.62-3.6S127.43,26.79,127.43,28.78Z"/>
          <path class="cls-7" d="M117.28,27.72a1.18,1.18,0,0,1-2.35,0,1.18,1.18,0,0,1,2.35,0Z"/>
          <ellipse class="cls-7" cx="115.35" cy="29.62" rx="0.42" ry="0.38"/>
        </g>
        <g>
          <path class="cls-3" d="M48.2,172.92c-2.67-1.54-2.67-4,0-5.58l72.39-41.8a10.7,10.7,0,0,1,9.67,0l44.65,25.77c2.66,1.54,2.66,4.05,0,5.59l-72.4,41.79a10.7,10.7,0,0,1-9.67,0Z"/>
          <path class="cls-17" d="M45.17,170.46c-2.67-1.54-2.67-4,0-5.58l72.4-41.8a10.68,10.68,0,0,1,9.66,0l44.65,25.78c2.66,1.54,2.66,4,0,5.58l-72.4,41.8a10.7,10.7,0,0,1-9.67,0Z"/>
          <g>
            <path class="cls-18" d="M43.19,167.55h0v.12S43.19,167.59,43.19,167.55Z"/>
            <path class="cls-18" d="M173.86,151.53a3.33,3.33,0,0,1-2,2.91l-72.4,41.8a10.7,10.7,0,0,1-9.67,0L45.17,170.46a3.4,3.4,0,0,1-2-2.79v1.76a3.4,3.4,0,0,0,2,2.79L89.82,198a10.68,10.68,0,0,0,9.66,0l72.4-41.8a3.4,3.4,0,0,0,2-2.79h0v-1.88Z"/>
          </g>
          <path class="cls-19" d="M94.65,196a5.93,5.93,0,0,1-2.88-.7L47.12,169.55a2,2,0,0,1,0-3.76l72.4-41.8a6.29,6.29,0,0,1,5.76,0l44.65,25.78a2.23,2.23,0,0,1,1.3,1.88,2.26,2.26,0,0,1-1.3,1.88l-72.4,41.8A6,6,0,0,1,94.65,196Zm27.75-72a5.19,5.19,0,0,0-2.5.59l-72.4,41.8a1.28,1.28,0,0,0,0,2.46l44.65,25.77a5.51,5.51,0,0,0,5,0l72.4-41.8a1.28,1.28,0,0,0,0-2.45L124.9,124.64A5.19,5.19,0,0,0,122.4,124.05Z"/>
          <path class="cls-19" d="M125.56,126.73l1.37.78-4.43,5-1.22-.7,1.26-1.32-2.2-1.28-2.29.73-1.18-.68Zm-4,2.13,1.67,1,.58-.6c.48-.52,1-1.06,1.57-1.59l0,0c-.91.32-1.84.63-2.75.91Z"/>
          <path class="cls-19" d="M130.07,164.92c2.52-2.22,2.45-5.2-.14-7.39-3.11-2.63-8.47-3.48-13.13-2.65,1.44-2.69,0-5.79-4.59-7.58a19,19,0,0,0-12.8-.08c-4,1.53-5.78,4.08-5.26,6.5a30.57,30.57,0,0,1,.85,6.43l-.11,7.38,12.79-.06c3.73,0,7.43.22,11.13.49C123,168.26,127.42,167.25,130.07,164.92Z"/>
          <path class="cls-19" d="M119.84,133.83a.79.79,0,0,0,0-1.3,2.91,2.91,0,0,0-2.31-.47c.25-.48,0-1-.82-1.34a3.37,3.37,0,0,0-2.26,0c-.71.27-1,.72-.93,1.14a4.46,4.46,0,0,1,.15,1.14v1.3h2.25c.66,0,1.32,0,2,.09A2.84,2.84,0,0,0,119.84,133.83Z"/>
          <path class="cls-19" d="M91.75,192.52l-1.36-.79,4.42-5,1.22.71-1.26,1.32L97,190l2.28-.73,1.19.69Zm4-2.14-1.67-1-.57.59c-.48.53-1,1.07-1.58,1.6l0,0c.91-.32,1.85-.64,2.75-.92Z"/>
          <path class="cls-19" d="M97.15,185.22a.8.8,0,0,0,0,1.31,3,3,0,0,0,2.31.46c-.25.48,0,1,.81,1.34a3.37,3.37,0,0,0,2.26,0c.72-.27,1-.72.93-1.15a5.57,5.57,0,0,1-.15-1.14l0-1.3H101.1c-.65,0-1.31,0-2-.09A2.84,2.84,0,0,0,97.15,185.22Z"/>
        </g>
        <g>
          <path class="cls-3" d="M93,174.15c-2.67-1.54-2.67-4.05,0-5.59l72.4-41.79a10.68,10.68,0,0,1,9.66,0l44.65,25.77c2.67,1.54,2.67,4.05,0,5.58l-72.4,41.8a10.68,10.68,0,0,1-9.66,0Z"/>
          <path class="cls-17" d="M90,171.69c-2.66-1.54-2.66-4,0-5.58l72.4-41.8a10.7,10.7,0,0,1,9.67,0l44.64,25.78c2.67,1.53,2.67,4,0,5.58l-72.39,41.8a10.76,10.76,0,0,1-9.67,0Z"/>
          <g>
            <path class="cls-18" d="M88,168.78h0v.12S88,168.82,88,168.78Z"/>
            <path class="cls-18" d="M218.69,152.76a3.29,3.29,0,0,1-2,2.91l-72.39,41.8a10.76,10.76,0,0,1-9.67,0L90,171.69a3.4,3.4,0,0,1-2-2.79v1.76a3.4,3.4,0,0,0,2,2.79l44.65,25.78a10.73,10.73,0,0,0,9.67,0l72.39-41.79a3.38,3.38,0,0,0,2-2.79h0v-1.88Z"/>
          </g>
          <path class="cls-19" d="M139.48,197.25a5.85,5.85,0,0,1-2.88-.7L92,170.78a2.27,2.27,0,0,1-1.31-1.88A2.24,2.24,0,0,1,92,167l72.39-41.8a6.29,6.29,0,0,1,5.76,0L214.76,151a2.23,2.23,0,0,1,1.3,1.88,2.26,2.26,0,0,1-1.3,1.88l-72.4,41.79A5.82,5.82,0,0,1,139.48,197.25Zm27.75-72a5.22,5.22,0,0,0-2.5.59l-72.4,41.8a1.28,1.28,0,0,0,0,2.45L137,195.9a5.51,5.51,0,0,0,5,0l72.4-41.8a1.27,1.27,0,0,0,0-2.45l-44.65-25.78A5.19,5.19,0,0,0,167.23,125.28Z"/>
          <path class="cls-19" d="M170.39,128l1.37.79-4.43,5-1.22-.71,1.26-1.32-2.2-1.27-2.29.73-1.18-.68Zm-4,2.14,1.68,1,.57-.6c.48-.52,1-1.06,1.57-1.59l0,0c-.91.32-1.84.64-2.75.92Z"/>
          <path class="cls-19" d="M174.91,166.15c2.52-2.22,2.45-5.2-.14-7.39-3.11-2.63-8.48-3.48-13.13-2.65,1.43-2.69,0-5.79-4.6-7.58a19,19,0,0,0-12.79-.08c-4.05,1.53-5.79,4.08-5.27,6.5a29.92,29.92,0,0,1,.85,6.42l-.11,7.39,12.79-.06c3.73,0,7.44.22,11.13.49C167.84,169.49,172.25,168.48,174.91,166.15Z"/>
          <path class="cls-19" d="M164.67,135.06a.8.8,0,0,0,0-1.31,3,3,0,0,0-2.32-.46c.25-.48,0-1-.81-1.34a3.37,3.37,0,0,0-2.26,0c-.72.27-1,.72-.93,1.15a5.57,5.57,0,0,1,.15,1.14l0,1.3h2.26c.66,0,1.31,0,2,.09A2.84,2.84,0,0,0,164.67,135.06Z"/>
          <path class="cls-19" d="M136.58,193.75l-1.36-.79,4.42-5,1.22.71L139.6,190l2.21,1.27,2.28-.73,1.19.68Zm4-2.14-1.67-1-.57.6c-.48.52-1,1.07-1.58,1.59l0,0c.92-.32,1.85-.64,2.75-.92Z"/>
          <path class="cls-19" d="M142,186.45a.79.79,0,0,0,0,1.3,2.94,2.94,0,0,0,2.32.47c-.26.48,0,1,.81,1.34a3.37,3.37,0,0,0,2.26,0c.71-.27,1-.72.93-1.14a5.57,5.57,0,0,1-.15-1.14l0-1.3h-2.26c-.66,0-1.31,0-2-.09A2.84,2.84,0,0,0,142,186.45Z"/>
        </g>
        <g>
          <ellipse class="cls-3" cx="75.64" cy="110.09" rx="32.6" ry="18.82"/>
          <g>
            <path class="cls-20" d="M88.05,114.6c-12.92,7.46-33.88,7.46-46.8,0-6.46-3.73-9.7-8.62-9.7-13.51v6c0,4.89,3.24,9.78,9.7,13.51,12.92,7.46,33.88,7.46,46.8,0,6.47-3.73,9.7-8.62,9.7-13.51v-6C97.75,106,94.52,110.87,88.05,114.6Z"/>
            <g>
              <path class="cls-21" d="M49.2,93.37c8.54-4.93,22.37-4.93,30.91,0,4,2.31,6.12,5.29,6.37,8.32.29-3.43-1.84-6.91-6.37-9.53-8.54-4.92-22.37-4.92-30.91,0-4.53,2.62-6.66,6.1-6.37,9.53C43.07,98.66,45.2,95.68,49.2,93.37Z"/>
              <path class="cls-22" d="M49.2,110c8.54,4.93,22.37,4.93,30.91,0,4-2.31,6.12-5.3,6.37-8.32-.25-3-2.37-6-6.37-8.32-8.54-4.93-22.37-4.93-30.91,0-4,2.31-6.13,5.29-6.37,8.32C43.07,104.71,45.2,107.7,49.2,110Z"/>
              <g>
                <ellipse class="cls-23" cx="64.65" cy="102.29" rx="20.68" ry="11.94"/>
                <ellipse class="cls-22" cx="64.65" cy="101.09" rx="20.68" ry="11.94"/>
                <path class="cls-7" d="M78.6,109.14c-.56.32-1.15.62-1.76.9a.62.62,0,0,1-.55,0c-.14-.1-.11-.24.06-.32a18.24,18.24,0,0,0,3.23-1.87.62.62,0,0,1,.55,0c.17.08.2.22.06.32A17.47,17.47,0,0,1,78.6,109.14Zm-5.71,2.28a.43.43,0,0,1-.12,0,32.56,32.56,0,0,1-4.54.82c-.21,0-.41-.06-.45-.19s.1-.24.31-.26a30.28,30.28,0,0,0,4.36-.78.51.51,0,0,1,.52.11C73,111.26,73,111.36,72.89,111.42Zm9.68-5.6a.64.64,0,0,1-.44.05c-.19-.06-.28-.19-.19-.3a8.24,8.24,0,0,0,1.35-2.52c0-.12.24-.2.45-.18s.36.14.32.26a8.38,8.38,0,0,1-1.41,2.62A.27.27,0,0,1,82.57,105.82Zm-18.78,6.57a.58.58,0,0,1-.3.06,32.69,32.69,0,0,1-4.68-.48c-.21,0-.32-.17-.26-.29s.29-.18.49-.15a31.62,31.62,0,0,0,4.49.47c.22,0,.38.12.37.24A.2.2,0,0,1,63.79,112.39Zm20.44-11.82a.66.66,0,0,1-.26.06c-.21,0-.4-.09-.41-.21a7,7,0,0,0-.82-2.59c-.07-.12.05-.25.26-.29a.51.51,0,0,1,.49.15,7.26,7.26,0,0,1,.85,2.7C84.35,100.46,84.3,100.52,84.23,100.57ZM55,110.81a.65.65,0,0,1-.48,0,22.92,22.92,0,0,1-3.74-1.7c-.16-.08-.16-.23,0-.31h0a.66.66,0,0,1,.55,0,21.59,21.59,0,0,0,3.6,1.63c.18.06.24.2.13.31ZM81.48,95.47l-.08,0a.59.59,0,0,1-.54-.08,14.82,14.82,0,0,0-2.81-2.07c-.16-.09-.19-.25,0-.34a.56.56,0,0,1,.52,0l.06,0a15.42,15.42,0,0,1,2.94,2.16C81.63,95.28,81.6,95.39,81.48,95.47ZM48.4,107l-.08,0a.57.57,0,0,1-.53-.08,10.08,10.08,0,0,1-2-2.5c-.06-.12,0-.25.26-.28a.47.47,0,0,1,.49.14,9.69,9.69,0,0,0,1.88,2.4C48.55,106.86,48.52,107,48.4,107ZM74.87,91.67a.66.66,0,0,1-.48,0,28,28,0,0,0-4.17-1.07c-.21,0-.32-.17-.26-.28a.47.47,0,0,1,.49-.15,27.55,27.55,0,0,1,4.34,1.11c.19.07.25.2.14.31ZM45.63,102a.66.66,0,0,1-.25.06c-.22,0-.41-.09-.42-.21a6.72,6.72,0,0,1,.27-2.74c0-.12.25-.2.46-.18s.35.14.32.26a6.55,6.55,0,0,0-.27,2.63C45.75,101.84,45.7,101.9,45.63,102ZM66,90.1a.52.52,0,0,1-.29.06,32.94,32.94,0,0,0-4.56.17c-.21,0-.42-.06-.46-.18s.1-.24.32-.26a34,34,0,0,1,4.74-.18c.22,0,.38.12.37.24A.22.22,0,0,1,66,90.1ZM47.27,96.69a.6.6,0,0,1-.44,0c-.2,0-.29-.19-.2-.3a12.24,12.24,0,0,1,2.45-2.35.59.59,0,0,1,.55,0c.17.07.2.22.07.31a12.1,12.1,0,0,0-2.35,2.26A.27.27,0,0,1,47.27,96.69Zm9.66-5.61-.12,0a24.74,24.74,0,0,0-3.89,1.38.62.62,0,0,1-.55,0c-.14-.1-.11-.24.06-.32a25.52,25.52,0,0,1,4.06-1.43.55.55,0,0,1,.52.11C57.08,90.91,57,91,56.93,91.08Z"/>
              </g>
              <path class="cls-22" d="M88.05,87.57A38.52,38.52,0,0,0,79.34,84c-1.62-.47-4.54,0-6.24-.32-2-.35-2.74-1.42-4.76-1.55a52.81,52.81,0,0,0-22.62,3.32c-1.57.63-2.06,2.25-3.47,3.06s-3.56.71-4.62,1.58c-4.79,3.9-6.75,8.59-5.87,13.15.21,1.11,1.68,1.83,2.24,2.91s.11,2.43.94,3.41a24.26,24.26,0,0,0,6.31,5.08,38.72,38.72,0,0,0,8.83,3.65c2,.55,4.5-1.3,6.57-1,1.62.25,2.74,2.71,4.4,2.81a52.47,52.47,0,0,0,22.69-3.38c1.52-.62.91-3.46,2.27-4.24s4.7.46,5.8-.45c4.76-3.93,6.66-8.67,5.69-13.25-.21-1-2.65-1.87-3.16-2.88s.83-2.29,0-3.28A23.66,23.66,0,0,0,88.05,87.57ZM80.11,110c-8.54,4.93-22.37,4.93-30.91,0s-8.53-12.92,0-17.85,22.37-4.92,30.91,0S88.64,105.08,80.11,110Z"/>
            </g>
            <g>
              <path class="cls-7" d="M53.86,90.1l-8.14-4.7a35,35,0,0,0-4.39,2.13,26.52,26.52,0,0,0-3.69,2.54l8.1,4.67a16.86,16.86,0,0,1,3.45-2.58A24.38,24.38,0,0,1,53.86,90.1Z"/>
              <path class="cls-7" d="M75.64,112l8.1,4.68a35.66,35.66,0,0,0,4.39-2.13A27.09,27.09,0,0,0,91.82,112l-8.15-4.71a16.46,16.46,0,0,1-3.55,2.7A23.61,23.61,0,0,1,75.64,112Z"/>
              <path class="cls-7" d="M50.08,118.25a52.51,52.51,0,0,0,11,1.85l3.23-6.39a34.68,34.68,0,0,1-11-1.83Z"/>
              <path class="cls-7" d="M79.34,83.93a52.5,52.5,0,0,0-11-1.84l-3.24,6.37a34.57,34.57,0,0,1,11,1.86Z"/>
              <path class="cls-7" d="M86.51,100.81l11-1.87a13.84,13.84,0,0,0-3.19-6.33L83.29,94.48A9.24,9.24,0,0,1,86.51,100.81Z"/>
              <path class="cls-7" d="M31.74,103.2a13.77,13.77,0,0,0,3.19,6.34L46,107.67a9.21,9.21,0,0,1-3.2-6.33Z"/>
            </g>
          </g>
          <ellipse class="cls-3" cx="46.1" cy="146.32" rx="32.6" ry="18.82"/>
          <g>
            <path class="cls-24" d="M58.51,150.83c-12.92,7.46-33.88,7.46-46.8,0C5.24,147.09,2,142.2,2,137.31v6.05c0,4.89,3.23,9.78,9.7,13.51,12.92,7.46,33.88,7.46,46.8,0,6.47-3.73,9.7-8.62,9.7-13.51v-6.05C68.21,142.2,65,147.09,58.51,150.83Z"/>
            <g>
              <path class="cls-25" d="M19.66,129.6c8.53-4.93,22.37-4.93,30.91,0,4,2.31,6.12,5.29,6.37,8.32.28-3.43-1.84-6.91-6.37-9.53-8.54-4.93-22.38-4.93-30.91,0-4.53,2.62-6.66,6.1-6.38,9.53C13.53,134.89,15.66,131.91,19.66,129.6Z"/>
              <path class="cls-22" d="M19.66,146.24c8.53,4.92,22.37,4.92,30.91,0,4-2.31,6.12-5.3,6.37-8.32-.25-3-2.37-6-6.37-8.32-8.54-4.93-22.38-4.93-30.91,0-4,2.31-6.13,5.29-6.38,8.32C13.53,140.94,15.66,143.93,19.66,146.24Z"/>
              <g>
                <ellipse class="cls-26" cx="35.11" cy="138.52" rx="20.68" ry="11.94"/>
                <ellipse class="cls-22" cx="35.11" cy="137.31" rx="20.68" ry="11.94"/>
                <path class="cls-7" d="M49.06,145.37q-.84.48-1.77.9a.59.59,0,0,1-.55,0c-.13-.09-.1-.24.07-.31A18.4,18.4,0,0,0,50,144.05a.59.59,0,0,1,.55,0c.17.08.2.22.07.32A19,19,0,0,1,49.06,145.37Zm-5.72,2.28-.11,0a31.16,31.16,0,0,1-4.54.81c-.21,0-.42,0-.46-.18s.1-.24.32-.26a29,29,0,0,0,4.36-.79.51.51,0,0,1,.51.12C43.49,147.48,43.46,147.59,43.34,147.65Zm9.69-5.6a.65.65,0,0,1-.44,0c-.2-.05-.29-.18-.2-.3a7.79,7.79,0,0,0,1.35-2.51c0-.12.25-.21.46-.18s.35.14.32.26A8.49,8.49,0,0,1,53.11,142,.27.27,0,0,1,53,142.05Zm-18.79,6.57a.52.52,0,0,1-.29.06,32.54,32.54,0,0,1-4.68-.49c-.21,0-.32-.16-.26-.28s.28-.18.49-.15a31.62,31.62,0,0,0,4.49.47c.22,0,.38.12.37.24A.22.22,0,0,1,34.24,148.62Zm20.44-11.83a.46.46,0,0,1-.25.07c-.21,0-.4-.09-.41-.21a7.12,7.12,0,0,0-.82-2.59c-.07-.12,0-.25.25-.29a.47.47,0,0,1,.49.15,7.22,7.22,0,0,1,.86,2.7C54.81,136.69,54.76,136.75,54.68,136.79ZM25.41,147a.61.61,0,0,1-.48,0,22.09,22.09,0,0,1-3.74-1.69c-.16-.09-.16-.23,0-.32h0a.59.59,0,0,1,.55,0,20.88,20.88,0,0,0,3.6,1.63c.18.06.24.2.13.31Zm26.53-15.35-.08,0a.59.59,0,0,1-.54-.08,14.19,14.19,0,0,0-2.82-2.07c-.15-.09-.18-.25,0-.34a.55.55,0,0,1,.53,0l.06,0A15.34,15.34,0,0,1,52,131.42C52.09,131.51,52.06,131.62,51.94,131.69ZM18.86,143.27l-.08,0a.56.56,0,0,1-.54-.07,10.46,10.46,0,0,1-2-2.5c-.06-.12,0-.25.26-.29a.5.5,0,0,1,.49.15,9.88,9.88,0,0,0,1.88,2.4C19,143.08,19,143.2,18.86,143.27Zm26.46-15.38a.59.59,0,0,1-.47,0,25.71,25.71,0,0,0-4.17-1.07c-.21,0-.33-.17-.26-.29s.28-.18.49-.15a28.7,28.7,0,0,1,4.34,1.12c.18.06.24.2.13.31A.09.09,0,0,1,45.32,127.89ZM16.09,138.17a.53.53,0,0,1-.26.07c-.21,0-.4-.09-.41-.21a6.72,6.72,0,0,1,.27-2.74.43.43,0,0,1,.46-.18c.21,0,.35.14.31.26A6.36,6.36,0,0,0,16.2,138,.18.18,0,0,1,16.09,138.17Zm20.39-11.84a.54.54,0,0,1-.3.06,32.79,32.79,0,0,0-4.55.17c-.22,0-.42-.06-.46-.18s.1-.24.31-.27a35.74,35.74,0,0,1,4.75-.17c.21,0,.38.11.37.24A.22.22,0,0,1,36.48,126.33Zm-18.76,6.59a.68.68,0,0,1-.43.05c-.2-.06-.29-.19-.2-.3a12.56,12.56,0,0,1,2.45-2.36.62.62,0,0,1,.55,0c.17.07.2.21.07.31a12.46,12.46,0,0,0-2.36,2.26A.19.19,0,0,1,17.72,132.92Zm9.67-5.62a.43.43,0,0,1-.12,0,24.5,24.5,0,0,0-3.9,1.37.62.62,0,0,1-.55,0c-.13-.1-.1-.24.07-.32A25.18,25.18,0,0,1,27,126.94a.55.55,0,0,1,.52.11C27.54,127.14,27.5,127.24,27.39,127.3Z"/>
              </g>
              <path class="cls-22" d="M58.51,123.8a39,39,0,0,0-8.71-3.62c-1.62-.46-4.54,0-6.24-.31-2-.35-2.74-1.42-4.77-1.55a52.64,52.64,0,0,0-22.61,3.32c-1.57.63-2.07,2.25-3.47,3.06s-3.56.71-4.63,1.58c-4.78,3.89-6.74,8.59-5.87,13.15.22,1.11,1.69,1.82,2.24,2.91s.12,2.43,1,3.41a23.93,23.93,0,0,0,6.31,5.08,39.18,39.18,0,0,0,8.83,3.65c1.95.55,4.5-1.3,6.56-1,1.63.24,2.75,2.71,4.41,2.81a52.62,52.62,0,0,0,22.69-3.38c1.52-.62.91-3.46,2.27-4.25s4.7.47,5.8-.44C67,144.3,68.93,139.57,68,135c-.22-1-2.65-1.87-3.16-2.89s.83-2.28,0-3.28A24,24,0,0,0,58.51,123.8Zm-7.94,22.44c-8.54,4.92-22.38,4.92-30.91,0s-8.54-12.92,0-17.85,22.37-4.93,30.91,0S59.1,141.31,50.57,146.24Z"/>
            </g>
            <g>
              <path class="cls-7" d="M24.32,126.33l-8.14-4.7a35.8,35.8,0,0,0-4.4,2.13,26.36,26.36,0,0,0-3.68,2.53L16.2,131a16.78,16.78,0,0,1,3.44-2.58A24.75,24.75,0,0,1,24.32,126.33Z"/>
              <path class="cls-7" d="M46.1,148.23l8.1,4.68a35.66,35.66,0,0,0,4.39-2.13,26.39,26.39,0,0,0,3.68-2.54l-8.14-4.7a16.29,16.29,0,0,1-3.56,2.7A24.16,24.16,0,0,1,46.1,148.23Z"/>
              <path class="cls-7" d="M20.54,154.48a52.4,52.4,0,0,0,11,1.85l3.23-6.39a34.63,34.63,0,0,1-11-1.83Z"/>
              <path class="cls-7" d="M49.8,120.16a52.5,52.5,0,0,0-11-1.84l-3.24,6.37a34.57,34.57,0,0,1,11,1.86Z"/>
              <path class="cls-7" d="M57,137l11-1.87a13.76,13.76,0,0,0-3.2-6.33l-11.06,1.87A9.24,9.24,0,0,1,57,137Z"/>
              <path class="cls-7" d="M2.19,139.43a13.76,13.76,0,0,0,3.2,6.33l11.06-1.86a9.21,9.21,0,0,1-3.2-6.33Z"/>
            </g>
          </g>
          <g>
            <path class="cls-27" d="M56.5,124.33c-12.92,7.46-33.88,7.46-46.81,0C3.23,120.6,0,115.71,0,110.82v6c0,4.89,3.23,9.78,9.69,13.51,12.93,7.47,33.89,7.47,46.81,0,6.46-3.73,9.69-8.62,9.69-13.51v-6C66.19,115.71,63,120.6,56.5,124.33Z"/>
            <g>
              <path class="cls-28" d="M17.65,103.1c8.53-4.92,22.37-4.92,30.9,0,4,2.31,6.13,5.3,6.38,8.32.28-3.43-1.84-6.91-6.38-9.52C40,97,26.18,97,17.65,101.9c-4.54,2.61-6.66,6.09-6.38,9.52C11.52,108.4,13.65,105.41,17.65,103.1Z"/>
              <path class="cls-22" d="M17.65,119.74c8.53,4.93,22.37,4.93,30.9,0,4-2.31,6.13-5.29,6.38-8.32-.25-3-2.37-6-6.38-8.32-8.53-4.92-22.37-4.92-30.9,0-4,2.31-6.13,5.3-6.38,8.32C11.52,114.45,13.65,117.43,17.65,119.74Z"/>
              <g>
                <ellipse class="cls-29" cx="33.1" cy="112.03" rx="20.68" ry="11.94"/>
                <ellipse class="cls-22" cx="33.1" cy="110.82" rx="20.68" ry="11.94"/>
                <path class="cls-7" d="M47.05,118.87c-.56.32-1.15.63-1.77.91a.62.62,0,0,1-.55,0c-.13-.1-.1-.24.07-.32A17.79,17.79,0,0,0,48,117.55a.62.62,0,0,1,.55,0c.17.07.2.22.07.31A16.77,16.77,0,0,1,47.05,118.87Zm-5.72,2.28-.11,0a31.4,31.4,0,0,1-4.54.82c-.21,0-.42-.06-.46-.18s.1-.24.32-.27a29.89,29.89,0,0,0,4.35-.78.55.55,0,0,1,.52.11C41.48,121,41.44,121.09,41.33,121.15Zm9.69-5.6a.59.59,0,0,1-.44,0c-.2,0-.29-.19-.2-.3a7.83,7.83,0,0,0,1.35-2.52c0-.12.25-.2.46-.18s.35.14.31.26a8.14,8.14,0,0,1-1.4,2.62A.27.27,0,0,1,51,115.55Zm-18.79,6.57a.53.53,0,0,1-.3.07,34,34,0,0,1-4.67-.49c-.21,0-.33-.16-.26-.28a.47.47,0,0,1,.49-.15,33,33,0,0,0,4.49.47c.22,0,.38.11.37.23A.22.22,0,0,1,32.23,122.12ZM52.67,110.3a.46.46,0,0,1-.25.06c-.22,0-.4-.08-.42-.21a6.81,6.81,0,0,0-.82-2.59c-.06-.12,0-.25.26-.28a.49.49,0,0,1,.49.14,7.47,7.47,0,0,1,.86,2.7A.21.21,0,0,1,52.67,110.3ZM23.4,120.54a.61.61,0,0,1-.48,0,21.84,21.84,0,0,1-3.75-1.69.17.17,0,0,1,0-.32h0a.61.61,0,0,1,.56,0,21.1,21.1,0,0,0,3.59,1.62c.19.07.25.2.14.31ZM49.92,105.2l-.07,0a.58.58,0,0,1-.54-.07,14.93,14.93,0,0,0-2.82-2.08c-.15-.09-.18-.24,0-.33a.56.56,0,0,1,.53,0l.06,0A15.66,15.66,0,0,1,50,104.92C50.08,105,50.05,105.13,49.92,105.2ZM16.84,116.78l-.07,0a.59.59,0,0,1-.54-.08,10.27,10.27,0,0,1-2-2.5c-.06-.12.05-.25.26-.28a.49.49,0,0,1,.49.15,9.88,9.88,0,0,0,1.88,2.4C17,116.59,17,116.7,16.84,116.78ZM43.31,101.4a.61.61,0,0,1-.48,0,27.64,27.64,0,0,0-4.17-1.07c-.2,0-.32-.16-.26-.28a.49.49,0,0,1,.49-.15A28.83,28.83,0,0,1,43.24,101c.18.07.24.21.13.31ZM14.07,111.68a.46.46,0,0,1-.25.06c-.21,0-.4-.08-.41-.21a6.74,6.74,0,0,1,.27-2.74c0-.12.24-.2.46-.18s.35.14.31.26a6.38,6.38,0,0,0-.26,2.63C14.2,111.57,14.15,111.63,14.07,111.68Zm20.4-11.85a.66.66,0,0,1-.3.07,32.8,32.8,0,0,0-4.55.16c-.22,0-.42,0-.46-.18s.1-.24.31-.26a32.65,32.65,0,0,1,4.75-.17c.21,0,.38.11.37.23A.22.22,0,0,1,34.47,99.83Zm-18.76,6.59a.57.57,0,0,1-.43,0c-.2,0-.29-.18-.2-.3a12,12,0,0,1,2.45-2.35.59.59,0,0,1,.55,0c.17.08.2.22.06.32a11.8,11.8,0,0,0-2.35,2.26A.28.28,0,0,1,15.71,106.42Zm9.67-5.61-.12,0a23.55,23.55,0,0,0-3.9,1.37.59.59,0,0,1-.55,0c-.13-.1-.1-.24.07-.32a25.18,25.18,0,0,1,4.06-1.43.51.51,0,0,1,.51.12C25.52,100.64,25.49,100.74,25.38,100.81Z"/>
              </g>
              <path class="cls-22" d="M56.5,97.31a38.43,38.43,0,0,0-8.72-3.62c-1.62-.47-4.53,0-6.24-.32-2-.35-2.73-1.41-4.76-1.54a52.63,52.63,0,0,0-22.61,3.31c-1.57.63-2.07,2.25-3.47,3.06s-3.56.71-4.63,1.58c-4.78,3.9-6.74,8.6-5.87,13.15.21,1.11,1.69,1.83,2.24,2.91s.12,2.44,1,3.41a23.64,23.64,0,0,0,6.3,5.08A39,39,0,0,0,18.53,128c1.94.55,4.5-1.3,6.56-1,1.63.25,2.75,2.71,4.41,2.81a52.5,52.5,0,0,0,22.69-3.38c1.51-.62.91-3.46,2.26-4.24s4.71.46,5.81-.45c4.76-3.93,6.66-8.67,5.69-13.24-.22-1-2.65-1.88-3.17-2.89s.84-2.28,0-3.28A24,24,0,0,0,56.5,97.31Zm-8,22.43c-8.53,4.93-22.37,4.93-30.9,0s-8.54-12.92,0-17.84S40,97,48.55,101.9,57.09,114.81,48.55,119.74Z"/>
            </g>
            <g>
              <path class="cls-7" d="M22.31,99.84l-8.14-4.71a36.56,36.56,0,0,0-4.4,2.13A27.28,27.28,0,0,0,6.09,99.8l8.09,4.67a17.14,17.14,0,0,1,3.45-2.58A24.73,24.73,0,0,1,22.31,99.84Z"/>
              <path class="cls-7" d="M44.09,121.74l8.09,4.67a35.08,35.08,0,0,0,4.4-2.12,27.28,27.28,0,0,0,3.68-2.54l-8.14-4.7a16.94,16.94,0,0,1-3.56,2.7A25.16,25.16,0,0,1,44.09,121.74Z"/>
              <path class="cls-7" d="M18.53,128a53.05,53.05,0,0,0,11,1.84l3.22-6.39a34.62,34.62,0,0,1-11-1.83Z"/>
              <path class="cls-7" d="M47.78,93.67a52.4,52.4,0,0,0-11-1.85L33.57,98.2a34.58,34.58,0,0,1,11,1.86Z"/>
              <path class="cls-7" d="M55,110.54l11-1.86a13.77,13.77,0,0,0-3.19-6.34l-11.06,1.87A9.28,9.28,0,0,1,55,110.54Z"/>
              <path class="cls-7" d="M.18,112.93a13.87,13.87,0,0,0,3.19,6.34l11.07-1.86a9.21,9.21,0,0,1-3.2-6.34Z"/>
            </g>
          </g>
          <g>
            <path class="cls-30" d="M68.87,105.28c-12.93,7.46-33.88,7.46-46.81,0-6.46-3.73-9.69-8.62-9.69-13.52v6c0,4.89,3.23,9.78,9.69,13.51,12.93,7.46,33.88,7.46,46.81,0,6.46-3.73,9.69-8.62,9.69-13.51v-6C78.56,96.66,75.33,101.55,68.87,105.28Z"/>
            <g>
              <path class="cls-31" d="M30,84.05c8.53-4.93,22.37-4.93,30.9,0,4,2.31,6.13,5.29,6.38,8.32.28-3.43-1.84-6.91-6.38-9.53-8.53-4.92-22.37-4.92-30.9,0-4.54,2.62-6.66,6.1-6.38,9.53C23.89,89.34,26,86.36,30,84.05Z"/>
              <path class="cls-22" d="M30,100.69c8.53,4.92,22.37,4.92,30.9,0,4-2.31,6.13-5.3,6.38-8.32-.25-3-2.38-6-6.38-8.32-8.53-4.93-22.37-4.93-30.9,0-4,2.31-6.13,5.29-6.38,8.32C23.89,95.39,26,98.38,30,100.69Z"/>
              <g>
                <ellipse class="cls-32" cx="45.47" cy="92.97" rx="20.68" ry="11.94"/>
                <ellipse class="cls-22" cx="45.47" cy="91.76" rx="20.68" ry="11.94"/>
                <path class="cls-7" d="M59.41,99.82a19.31,19.31,0,0,1-1.76.9.62.62,0,0,1-.55,0c-.13-.1-.11-.24.07-.32a17.79,17.79,0,0,0,3.22-1.87.62.62,0,0,1,.55,0c.17.08.2.22.07.32A17.66,17.66,0,0,1,59.41,99.82ZM53.7,102.1l-.11.05a32.83,32.83,0,0,1-4.54.82c-.22,0-.42-.06-.46-.19s.1-.24.32-.26a28.83,28.83,0,0,0,4.35-.79.53.53,0,0,1,.52.12C53.85,101.94,53.81,102,53.7,102.1Zm9.69-5.6a.72.72,0,0,1-.44,0c-.2-.06-.29-.19-.2-.3a8.14,8.14,0,0,0,1.35-2.52c0-.12.24-.2.46-.18s.35.14.31.26a8.25,8.25,0,0,1-1.4,2.62A.27.27,0,0,1,63.39,96.5ZM44.6,103.07a.54.54,0,0,1-.3.06,32.55,32.55,0,0,1-4.67-.48c-.21,0-.33-.17-.26-.29s.28-.18.49-.15a31.32,31.32,0,0,0,4.49.47c.21,0,.38.12.37.24A.22.22,0,0,1,44.6,103.07ZM65,91.25a.57.57,0,0,1-.25.06c-.22,0-.4-.09-.42-.21a6.81,6.81,0,0,0-.82-2.59c-.06-.12.05-.25.26-.29s.43,0,.49.15a7.4,7.4,0,0,1,.86,2.7A.21.21,0,0,1,65,91.25ZM35.77,101.49a.61.61,0,0,1-.48,0,21.84,21.84,0,0,1-3.75-1.69c-.15-.08-.15-.23,0-.32h0a.68.68,0,0,1,.56,0,21.12,21.12,0,0,0,3.59,1.63c.19.06.25.2.14.31ZM62.29,86.15l-.07,0a.58.58,0,0,1-.54-.08A15.23,15.23,0,0,0,58.86,84c-.15-.09-.18-.25,0-.34a.58.58,0,0,1,.53,0l0,0a15.42,15.42,0,0,1,2.94,2.16C62.45,86,62.42,86.07,62.29,86.15ZM29.21,97.72l-.07,0a.58.58,0,0,1-.54-.08,10.27,10.27,0,0,1-2-2.5c-.07-.12.05-.25.26-.29a.51.51,0,0,1,.49.15,9.64,9.64,0,0,0,1.88,2.4C29.37,97.53,29.34,97.65,29.21,97.72ZM55.68,82.35a.65.65,0,0,1-.48,0A27.64,27.64,0,0,0,51,81.31c-.2,0-.32-.17-.26-.29a.51.51,0,0,1,.49-.15A29.14,29.14,0,0,1,55.61,82c.18.07.24.2.13.31ZM26.44,92.62a.46.46,0,0,1-.25.07c-.22,0-.4-.09-.42-.21a6.9,6.9,0,0,1,.28-2.74.42.42,0,0,1,.45-.18c.22,0,.36.14.32.26a6.38,6.38,0,0,0-.26,2.63A.19.19,0,0,1,26.44,92.62Zm20.4-11.84a.56.56,0,0,1-.3.06A33,33,0,0,0,42,81c-.21,0-.41-.06-.45-.18s.1-.24.31-.26a34.12,34.12,0,0,1,4.75-.18c.21,0,.38.12.36.24A.18.18,0,0,1,46.84,80.78ZM28.08,87.37a.64.64,0,0,1-.44,0c-.19,0-.28-.19-.19-.3a12,12,0,0,1,2.45-2.35.59.59,0,0,1,.55,0c.17.07.2.22.06.31a12.1,12.1,0,0,0-2.35,2.26A.27.27,0,0,1,28.08,87.37Zm9.66-5.61-.11,0a24.5,24.5,0,0,0-3.9,1.37.59.59,0,0,1-.55,0c-.13-.1-.1-.24.07-.32a25.06,25.06,0,0,1,4-1.43.55.55,0,0,1,.52.11C37.89,81.59,37.86,81.69,37.74,81.76Z"/>
              </g>
              <path class="cls-22" d="M68.87,78.25a38.89,38.89,0,0,0-8.72-3.62c-1.62-.46-4.53,0-6.24-.31-2-.35-2.73-1.42-4.76-1.55a52.79,52.79,0,0,0-22.61,3.32c-1.58.63-2.07,2.25-3.47,3.06s-3.56.71-4.63,1.58c-4.78,3.89-6.74,8.59-5.87,13.15.21,1.11,1.69,1.83,2.24,2.91s.12,2.43.95,3.41a24,24,0,0,0,6.3,5.08,39,39,0,0,0,8.84,3.65c1.94.55,4.5-1.3,6.56-1,1.63.25,2.74,2.71,4.41,2.81a52.65,52.65,0,0,0,22.69-3.38c1.51-.62.91-3.46,2.26-4.25s4.71.47,5.81-.44c4.76-3.93,6.65-8.67,5.69-13.25-.22-1-2.65-1.87-3.17-2.88s.83-2.29,0-3.29A24.17,24.17,0,0,0,68.87,78.25Zm-8,22.44c-8.53,4.92-22.37,4.92-30.9,0s-8.54-12.92,0-17.85,22.37-4.92,30.9,0S69.46,95.76,60.92,100.69Z"/>
            </g>
            <g>
              <path class="cls-7" d="M34.68,80.78l-8.15-4.7a35.66,35.66,0,0,0-4.39,2.13,27.12,27.12,0,0,0-3.69,2.54l8.1,4.67A16.86,16.86,0,0,1,30,82.84,24.47,24.47,0,0,1,34.68,80.78Z"/>
              <path class="cls-7" d="M56.45,102.68l8.1,4.68a35.8,35.8,0,0,0,4.4-2.13,26.36,26.36,0,0,0,3.68-2.53L64.49,98a16.29,16.29,0,0,1-3.56,2.7A24.26,24.26,0,0,1,56.45,102.68Z"/>
              <path class="cls-7" d="M30.9,108.93a52.29,52.29,0,0,0,11,1.85l3.22-6.39a34.73,34.73,0,0,1-11-1.83Z"/>
              <path class="cls-7" d="M60.15,74.61a52.39,52.39,0,0,0-11-1.84l-3.24,6.37a34.58,34.58,0,0,1,11,1.86Z"/>
              <path class="cls-7" d="M67.33,91.49l11-1.87a13.74,13.74,0,0,0-3.19-6.33L64.1,85.16A9.26,9.26,0,0,1,67.33,91.49Z"/>
              <path class="cls-7" d="M12.55,93.88a13.79,13.79,0,0,0,3.19,6.33l11.07-1.86A9.17,9.17,0,0,1,23.61,92Z"/>
            </g>
          </g>
        </g>
        <g>
          <ellipse class="cls-3" cx="141.12" cy="105.26" rx="32.6" ry="18.82"/>
          <g>
            <path class="cls-33" d="M153.53,109c-12.92,7.46-33.88,7.46-46.8,0-6.47-3.73-9.7-8.62-9.7-13.51v6c0,4.89,3.23,9.78,9.7,13.51,12.92,7.47,33.88,7.47,46.8,0,6.47-3.73,9.7-8.62,9.7-13.51v-6C163.23,100.36,160,105.25,153.53,109Z"/>
            <g>
              <path class="cls-34" d="M114.68,87.76c8.53-4.93,22.37-4.93,30.91,0,4,2.31,6.12,5.29,6.37,8.31.29-3.42-1.84-6.9-6.37-9.52-8.54-4.93-22.38-4.93-30.91,0-4.53,2.62-6.66,6.1-6.38,9.52C108.55,93.05,110.68,90.07,114.68,87.76Z"/>
              <path class="cls-35" d="M114.68,104.39c8.53,4.93,22.37,4.93,30.91,0,4-2.31,6.12-5.29,6.37-8.32-.25-3-2.37-6-6.37-8.31-8.54-4.93-22.38-4.93-30.91,0-4,2.31-6.13,5.29-6.38,8.31C108.55,99.1,110.68,102.08,114.68,104.39Z"/>
              <g>
                <ellipse class="cls-36" cx="130.13" cy="96.68" rx="20.68" ry="11.94"/>
                <ellipse class="cls-35" cx="130.13" cy="95.47" rx="20.68" ry="11.94"/>
                <path class="cls-7" d="M144.08,103.52c-.56.32-1.15.63-1.77.91a.59.59,0,0,1-.55,0c-.13-.1-.1-.24.07-.32a18.37,18.37,0,0,0,3.22-1.86.59.59,0,0,1,.55,0c.17.07.2.22.07.32A16.71,16.71,0,0,1,144.08,103.52Zm-5.72,2.29-.11,0a31.16,31.16,0,0,1-4.54.82c-.21,0-.42-.06-.46-.18s.1-.24.32-.26a30.28,30.28,0,0,0,4.36-.79.53.53,0,0,1,.51.11C138.51,105.64,138.48,105.74,138.36,105.81Zm9.69-5.61a.59.59,0,0,1-.44,0c-.2,0-.29-.18-.2-.3a7.89,7.89,0,0,0,1.35-2.51c0-.13.25-.21.46-.19s.35.14.32.27a8.6,8.6,0,0,1-1.41,2.62A.24.24,0,0,1,148.05,100.2Zm-18.78,6.57a.58.58,0,0,1-.3.07,32.54,32.54,0,0,1-4.68-.49c-.21,0-.32-.16-.26-.28a.47.47,0,0,1,.49-.15,31.62,31.62,0,0,0,4.49.47c.22,0,.38.11.37.24A.21.21,0,0,1,129.27,106.77ZM149.7,95a.57.57,0,0,1-.25.07c-.21,0-.4-.09-.41-.22a7.18,7.18,0,0,0-.82-2.59c-.07-.12.05-.25.25-.28a.47.47,0,0,1,.49.15,7.16,7.16,0,0,1,.86,2.7A.18.18,0,0,1,149.7,95ZM120.43,105.2a.65.65,0,0,1-.48,0,22.09,22.09,0,0,1-3.74-1.69c-.16-.09-.16-.23,0-.32h0a.59.59,0,0,1,.55,0,20.86,20.86,0,0,0,3.6,1.62c.18.07.24.21.13.31ZM147,89.85l-.08,0a.59.59,0,0,1-.54-.07,14.19,14.19,0,0,0-2.82-2.07c-.15-.09-.18-.25,0-.34a.56.56,0,0,1,.53,0l.06,0A15.31,15.31,0,0,1,147,89.57C147.11,89.66,147.08,89.78,147,89.85Zm-33.08,11.58-.08,0a.57.57,0,0,1-.54-.08,10.27,10.27,0,0,1-2-2.5c-.06-.12,0-.24.26-.28a.47.47,0,0,1,.49.15,9.88,9.88,0,0,0,1.88,2.4C114,101.24,114,101.36,113.88,101.43Zm26.46-15.38a.59.59,0,0,1-.47,0A28,28,0,0,0,135.7,85c-.21,0-.33-.16-.26-.28a.47.47,0,0,1,.49-.15,27.56,27.56,0,0,1,4.34,1.12c.18.06.24.2.13.31A.15.15,0,0,1,140.34,86.05ZM111.11,96.33a.66.66,0,0,1-.26.07c-.21,0-.4-.09-.41-.22a6.69,6.69,0,0,1,.27-2.73c0-.13.24-.21.46-.19s.35.14.31.27a6.36,6.36,0,0,0-.26,2.63A.19.19,0,0,1,111.11,96.33ZM131.5,84.48a.53.53,0,0,1-.3.07,32.79,32.79,0,0,0-4.55.17c-.22,0-.42-.06-.46-.18s.1-.25.31-.27a34.13,34.13,0,0,1,4.75-.17c.21,0,.38.11.37.24A.22.22,0,0,1,131.5,84.48Zm-18.76,6.6a.62.62,0,0,1-.43,0c-.2-.05-.29-.18-.2-.3a12.52,12.52,0,0,1,2.45-2.35.59.59,0,0,1,.55,0c.17.08.2.22.07.32A11.87,11.87,0,0,0,112.82,91,.29.29,0,0,1,112.74,91.08Zm9.67-5.62a.43.43,0,0,1-.12.05,23.55,23.55,0,0,0-3.9,1.37.59.59,0,0,1-.55,0c-.13-.1-.1-.24.07-.31A23.39,23.39,0,0,1,122,85.1a.51.51,0,0,1,.52.11C122.56,85.3,122.52,85.4,122.41,85.46Z"/>
              </g>
              <path class="cls-35" d="M153.53,82a39,39,0,0,0-8.71-3.62c-1.62-.46-4.54,0-6.24-.32-2-.34-2.74-1.41-4.77-1.54a52.79,52.79,0,0,0-22.61,3.31c-1.57.64-2.07,2.25-3.47,3.06s-3.56.71-4.63,1.58c-4.78,3.9-6.74,8.6-5.87,13.15.22,1.12,1.69,1.83,2.24,2.91s.12,2.44,1,3.42a23.71,23.71,0,0,0,6.31,5.07,38.72,38.72,0,0,0,8.83,3.65c2,.55,4.5-1.29,6.56-1,1.63.25,2.75,2.71,4.41,2.82a52.63,52.63,0,0,0,22.69-3.39c1.52-.62.91-3.46,2.27-4.24s4.7.46,5.8-.44c4.76-3.94,6.66-8.68,5.69-13.25-.22-1-2.65-1.88-3.16-2.89s.83-2.28,0-3.28A24,24,0,0,0,153.53,82Zm-7.94,22.43c-8.54,4.93-22.38,4.93-30.91,0s-8.54-12.91,0-17.84,22.37-4.93,30.91,0S154.12,99.46,145.59,104.39Z"/>
            </g>
            <g>
              <path class="cls-7" d="M119.34,84.49l-8.14-4.7a35.76,35.76,0,0,0-4.4,2.12,27.28,27.28,0,0,0-3.68,2.54l8.1,4.68a16.45,16.45,0,0,1,3.44-2.59A25.38,25.38,0,0,1,119.34,84.49Z"/>
              <path class="cls-7" d="M141.12,106.39l8.1,4.68a37.16,37.16,0,0,0,4.39-2.13,27.28,27.28,0,0,0,3.68-2.54l-8.14-4.7a16.29,16.29,0,0,1-3.56,2.7A24.84,24.84,0,0,1,141.12,106.39Z"/>
              <path class="cls-7" d="M115.56,112.64a52.39,52.39,0,0,0,11,1.84l3.23-6.39a34.35,34.35,0,0,1-11-1.83Z"/>
              <path class="cls-7" d="M144.82,78.32a52.51,52.51,0,0,0-11-1.85l-3.24,6.38a34.57,34.57,0,0,1,11,1.86Z"/>
              <path class="cls-7" d="M152,95.19l11-1.86a13.72,13.72,0,0,0-3.2-6.33l-11.06,1.87A9.2,9.2,0,0,1,152,95.19Z"/>
              <path class="cls-7" d="M97.21,97.59a13.76,13.76,0,0,0,3.2,6.33l11.06-1.86a9.21,9.21,0,0,1-3.2-6.33Z"/>
            </g>
          </g>
        </g>
        <g>
          <ellipse class="cls-3" cx="181.79" cy="111.09" rx="32.6" ry="18.82"/>
          <g>
            <path class="cls-37" d="M189.59,121.77c-14.64,2.92-34.48-3.82-44.32-15-4.92-5.61-6.41-11.28-4.84-15.91l-1.94,5.72c-1.57,4.63-.08,10.3,4.84,15.91,9.84,11.22,29.68,18,44.32,15,7.32-1.46,11.95-5,13.52-9.68l1.94-5.72C201.54,116.73,196.91,120.32,189.59,121.77Z"/>
            <g>
              <path class="cls-38" d="M159.62,89.18c9.67-1.92,22.77,2.53,29.27,9.94,3.05,3.47,4.1,7,3.36,9.93,1.37-3.16.48-7.14-3-11.07-6.5-7.41-19.6-11.86-29.27-9.94-5.13,1-8.26,3.63-9.1,7C152.12,92.23,155.09,90.09,159.62,89.18Z"/>
              <path class="cls-35" d="M154.28,104.94c6.49,7.41,19.6,11.86,29.26,9.93,4.53-.9,7.5-3,8.71-5.82.74-3-.31-6.46-3.36-9.93-6.5-7.41-19.6-11.86-29.27-9.94-4.53.91-7.5,3-8.71,5.83C150.18,98,151.23,101.46,154.28,104.94Z"/>
              <g>
                <ellipse class="cls-39" cx="171.39" cy="102.6" rx="11.94" ry="20.68" transform="translate(19.14 231.9) rotate(-71.25)"/>
                <path class="cls-35" d="M188.34,98.16c6.15,7,3.72,14.17-5.43,16s-21.55-2.39-27.7-9.4-3.72-14.17,5.43-16S182.19,91.15,188.34,98.16Z"/>
                <path class="cls-7" d="M182.39,113.56a17.44,17.44,0,0,1-2,.29.6.6,0,0,1-.51-.21c-.09-.13,0-.26.17-.28a18.29,18.29,0,0,0,3.65-.73.59.59,0,0,1,.53.14c.14.13.12.27,0,.32A14.55,14.55,0,0,1,182.39,113.56Zm-6.14.33h-.13a30.89,30.89,0,0,1-4.56-.69c-.2,0-.37-.19-.37-.32s.17-.19.38-.14a29.72,29.72,0,0,0,4.38.65.57.57,0,0,1,.46.28C176.44,113.78,176.38,113.87,176.25,113.89Zm11-2.19a.63.63,0,0,1-.43-.1c-.17-.11-.21-.27-.09-.34a8.17,8.17,0,0,0,2.09-2c.07-.11.29-.12.49,0s.29.25.21.35a8.3,8.3,0,0,1-2.17,2Zm-19.9.18a.54.54,0,0,1-.3,0,32.61,32.61,0,0,1-4.27-2c-.19-.1-.26-.26-.16-.35a.49.49,0,0,1,.51,0,31.31,31.31,0,0,0,4.11,1.88c.2.08.32.23.27.35A.21.21,0,0,1,167.32,111.88Zm23.16-4.62a.59.59,0,0,1-.26,0c-.21-.06-.36-.21-.33-.34a6.89,6.89,0,0,0,.06-2.72c0-.13.13-.21.33-.18s.4.16.42.3a7.25,7.25,0,0,1-.06,2.83A.2.2,0,0,1,190.48,107.26Zm-31,.29a.61.61,0,0,1-.46-.12,22.54,22.54,0,0,1-3-2.81c-.12-.13-.08-.27.1-.3h0a.59.59,0,0,1,.52.17,21.47,21.47,0,0,0,2.89,2.7c.15.12.16.27,0,.34Zm30-6h-.08a.59.59,0,0,1-.48-.24,14.69,14.69,0,0,0-2-2.87c-.11-.14-.09-.3.08-.33a.56.56,0,0,1,.51.15l0,0a15.77,15.77,0,0,1,2.09,3C189.72,101.42,189.65,101.52,189.51,101.54Zm-35,.33h-.08a.58.58,0,0,1-.49-.25,10.1,10.1,0,0,1-1.05-3c0-.14.13-.22.33-.19s.4.16.42.3a9.74,9.74,0,0,0,1,2.88C154.67,101.74,154.61,101.84,154.47,101.87Zm30-6.05a.61.61,0,0,1-.46-.12,27.62,27.62,0,0,0-3.6-2.36c-.19-.1-.26-.26-.16-.35a.49.49,0,0,1,.51,0,28.31,28.31,0,0,1,3.76,2.45c.15.12.16.27,0,.34Zm-31,.33a.58.58,0,0,1-.26,0c-.2-.07-.35-.22-.32-.34A6.6,6.6,0,0,1,154,93.3c.07-.11.29-.12.49,0s.29.25.21.35A6.41,6.41,0,0,0,153.65,96,.19.19,0,0,1,153.48,96.15Zm23.13-4.66a.57.57,0,0,1-.31,0,32.67,32.67,0,0,0-4.37-1.31c-.21,0-.37-.19-.37-.31s.17-.2.38-.15a33.87,33.87,0,0,1,4.55,1.36c.2.07.32.23.27.34A.19.19,0,0,1,176.61,91.49Zm-19.89.22a.61.61,0,0,1-.42-.1c-.18-.11-.22-.27-.1-.35a12.69,12.69,0,0,1,3.08-1.44.61.61,0,0,1,.53.14c.14.13.12.27,0,.32a12.09,12.09,0,0,0-3,1.39Zm11-2.21a.48.48,0,0,1-.12,0,24.74,24.74,0,0,0-4.14,0,.63.63,0,0,1-.51-.21c-.09-.14,0-.26.17-.28a24.55,24.55,0,0,1,4.3,0,.54.54,0,0,1,.46.27C167.87,89.39,167.81,89.47,167.68,89.5Z"/>
              </g>
              <path class="cls-35" d="M198.28,96.18A39,39,0,0,0,191.19,90c-1.39-1-4.29-1.48-5.81-2.31-1.75-1-2.14-2.22-4-3a52.9,52.9,0,0,0-22.48-4.14c-1.69.1-2.68,1.47-4.27,1.79s-3.6-.47-4.89,0c-5.78,2.15-9.15,6-9.79,10.56-.15,1.12,1,2.27,1.19,3.48s-.67,2.34-.2,3.53a24,24,0,0,0,4.34,6.84,39,39,0,0,0,7.19,6.29c1.67,1.15,4.68.22,6.53,1.18,1.46.76,1.73,3.45,3.27,4.09a52.66,52.66,0,0,0,22.57,4.09c1.64-.1,2-3,3.51-3.29s4.31,2,5.64,1.44c5.77-2.19,9.09-6.07,9.65-10.71.13-1.06-1.91-2.63-2.07-3.75s1.52-1.9,1-3.12A23.91,23.91,0,0,0,198.28,96.18Zm-14.74,18.69c-9.66,1.93-22.77-2.52-29.26-9.93S150.35,90,160,88s22.77,2.53,29.27,9.94S193.21,113,183.54,114.87Z"/>
            </g>
            <g>
              <path class="cls-7" d="M165.09,87.59l-6.2-7.07a36.11,36.11,0,0,0-4.85.6,26.55,26.55,0,0,0-4.3,1.22l6.16,7A16.72,16.72,0,0,1,160,88,24.86,24.86,0,0,1,165.09,87.59Z"/>
              <path class="cls-7" d="M178.67,115.33l6.16,7a36.11,36.11,0,0,0,4.85-.6,27.6,27.6,0,0,0,4.3-1.22l-6.2-7.07a16.54,16.54,0,0,1-4.23,1.41A25,25,0,0,1,178.67,115.33Z"/>
              <path class="cls-7" d="M152.46,113a52.41,52.41,0,0,0,9.79,5.27l5.11-5a34.39,34.39,0,0,1-9.8-5.26Z"/>
              <path class="cls-7" d="M191.19,89.94a51.87,51.87,0,0,0-9.79-5.28l-5.12,5a34.63,34.63,0,0,1,9.79,5.28Z"/>
              <path class="cls-7" d="M192.56,108.22,203.61,110a13.8,13.8,0,0,0-1-7l-11.08-1.79A9.23,9.23,0,0,1,192.56,108.22Z"/>
              <path class="cls-7" d="M139.92,92.88a13.91,13.91,0,0,0,1,7L152,101.7a9.23,9.23,0,0,1-1-7Z"/>
            </g>
          </g>
        </g>
        <g>
          <ellipse class="cls-3" cx="121.07" cy="150.11" rx="32.6" ry="18.82"/>
          <g>
            <path class="cls-40" d="M133.48,154.62c-12.92,7.46-33.88,7.46-46.8,0C80.21,150.89,77,146,77,141.11v6c0,4.89,3.23,9.78,9.7,13.51,12.92,7.46,33.88,7.46,46.8,0,6.47-3.73,9.7-8.62,9.7-13.51v-6C143.18,146,140,150.89,133.48,154.62Z"/>
            <g>
              <path class="cls-41" d="M94.63,133.39c8.53-4.92,22.37-4.92,30.91,0,4,2.31,6.12,5.3,6.37,8.32.29-3.43-1.84-6.91-6.37-9.52-8.54-4.93-22.38-4.93-30.91,0-4.53,2.61-6.66,6.09-6.38,9.52C88.5,138.69,90.63,135.7,94.63,133.39Z"/>
              <path class="cls-42" d="M94.63,150c8.53,4.93,22.37,4.93,30.91,0,4-2.31,6.12-5.29,6.37-8.32-.25-3-2.37-6-6.37-8.32-8.54-4.92-22.38-4.92-30.91,0-4,2.31-6.13,5.3-6.38,8.32C88.5,144.74,90.63,147.72,94.63,150Z"/>
              <g>
                <ellipse class="cls-43" cx="110.08" cy="142.32" rx="20.68" ry="11.94"/>
                <ellipse class="cls-42" cx="110.08" cy="141.11" rx="20.68" ry="11.94"/>
                <path class="cls-7" d="M124,149.16c-.56.32-1.15.63-1.77.91a.62.62,0,0,1-.55,0c-.13-.1-.1-.24.07-.32a17.79,17.79,0,0,0,3.22-1.87.62.62,0,0,1,.55,0c.18.07.21.21.07.31A19,19,0,0,1,124,149.16Zm-5.71,2.28-.12.05a31.16,31.16,0,0,1-4.54.82c-.21,0-.42-.06-.46-.18s.1-.24.32-.27a30.28,30.28,0,0,0,4.36-.78.56.56,0,0,1,.52.11A.17.17,0,0,1,118.32,151.44Zm9.68-5.6a.59.59,0,0,1-.44,0c-.2,0-.28-.19-.2-.3a8.07,8.07,0,0,0,1.36-2.52c0-.12.24-.2.45-.18s.36.14.32.26a8.38,8.38,0,0,1-1.41,2.62A.27.27,0,0,1,128,145.84Zm-18.78,6.57a.7.7,0,0,1-.3.07,34.19,34.19,0,0,1-4.68-.49c-.21,0-.32-.17-.26-.28a.47.47,0,0,1,.49-.15A33.15,33.15,0,0,0,109,152c.22,0,.38.11.37.23A.23.23,0,0,1,109.22,152.41Zm20.44-11.82a.53.53,0,0,1-.26.06c-.21,0-.4-.08-.41-.21a7,7,0,0,0-.82-2.59c-.07-.12.05-.25.25-.28a.52.52,0,0,1,.5.14,7.44,7.44,0,0,1,.85,2.7C129.78,140.48,129.73,140.54,129.66,140.59Zm-29.28,10.24a.61.61,0,0,1-.48,0,22.09,22.09,0,0,1-3.74-1.69c-.16-.09-.16-.23,0-.32h0a.59.59,0,0,1,.55,0,21.57,21.57,0,0,0,3.6,1.62c.18.06.24.2.13.31Zm26.53-15.34-.08,0a.59.59,0,0,1-.54-.07,14.62,14.62,0,0,0-2.82-2.08c-.15-.09-.18-.25,0-.33a.54.54,0,0,1,.52,0l.06,0a15.34,15.34,0,0,1,2.93,2.16C127.06,135.3,127,135.42,126.91,135.49ZM93.83,147.06l-.08,0a.59.59,0,0,1-.54-.08,10.27,10.27,0,0,1-2-2.5c-.06-.12,0-.25.26-.28a.47.47,0,0,1,.49.15,9.88,9.88,0,0,0,1.88,2.4C94,146.88,94,147,93.83,147.06Zm26.47-15.37a.61.61,0,0,1-.48,0,28,28,0,0,0-4.17-1.07c-.21,0-.33-.16-.26-.28a.47.47,0,0,1,.49-.15,28.69,28.69,0,0,1,4.34,1.11c.19.07.25.21.13.31A.12.12,0,0,1,120.3,131.69ZM91.06,142a.53.53,0,0,1-.26.06c-.21,0-.4-.08-.41-.21a6.72,6.72,0,0,1,.27-2.74c0-.12.25-.2.46-.18s.35.14.31.26a6.55,6.55,0,0,0-.26,2.63C91.18,141.86,91.13,141.92,91.06,142Zm20.39-11.85a.63.63,0,0,1-.3.07,32.85,32.85,0,0,0-4.55.16c-.21,0-.42,0-.46-.18s.1-.24.31-.26a34.12,34.12,0,0,1,4.75-.18c.22,0,.38.12.37.24A.22.22,0,0,1,111.45,130.12ZM92.7,136.71a.6.6,0,0,1-.44,0c-.2,0-.29-.19-.2-.3a12.24,12.24,0,0,1,2.45-2.35.59.59,0,0,1,.55,0c.17.08.2.22.07.32a11.54,11.54,0,0,0-2.35,2.26Zm9.66-5.61a.34.34,0,0,1-.12,0,24.39,24.39,0,0,0-3.89,1.38.61.61,0,0,1-.56,0c-.13-.1-.1-.24.07-.32a25.18,25.18,0,0,1,4.06-1.43.53.53,0,0,1,.52.12C102.51,130.93,102.47,131,102.36,131.1Z"/>
              </g>
              <path class="cls-42" d="M133.48,127.6a38.54,38.54,0,0,0-8.71-3.62c-1.62-.47-4.54,0-6.24-.32-2-.35-2.74-1.41-4.77-1.54a52.63,52.63,0,0,0-22.61,3.31c-1.57.63-2.07,2.25-3.47,3.06s-3.56.71-4.63,1.58c-4.78,3.9-6.74,8.6-5.87,13.15.22,1.11,1.69,1.83,2.24,2.91s.12,2.44,1,3.41a23.7,23.7,0,0,0,6.31,5.08,38.72,38.72,0,0,0,8.83,3.65c1.95.55,4.5-1.3,6.57-1,1.62.25,2.74,2.71,4.4,2.81a52.47,52.47,0,0,0,22.69-3.38c1.52-.62.91-3.46,2.27-4.24s4.7.46,5.8-.45c4.76-3.93,6.66-8.67,5.69-13.25-.22-1-2.65-1.87-3.16-2.88s.83-2.28,0-3.28A23.8,23.8,0,0,0,133.48,127.6ZM125.54,150C117,155,103.16,155,94.63,150s-8.54-12.92,0-17.84,22.37-4.93,30.91,0S134.07,145.1,125.54,150Z"/>
            </g>
            <g>
              <path class="cls-7" d="M99.29,130.12l-8.14-4.7a37.31,37.31,0,0,0-4.4,2.13,27.93,27.93,0,0,0-3.68,2.54l8.1,4.67a16.86,16.86,0,0,1,3.45-2.58A25,25,0,0,1,99.29,130.12Z"/>
              <path class="cls-7" d="M121.07,152l8.1,4.67a35.62,35.62,0,0,0,4.39-2.12,28.06,28.06,0,0,0,3.69-2.54l-8.15-4.7a16.94,16.94,0,0,1-3.56,2.7A24.84,24.84,0,0,1,121.07,152Z"/>
              <path class="cls-7" d="M95.51,158.28a53.05,53.05,0,0,0,11,1.84l3.23-6.39a34.63,34.63,0,0,1-11-1.83Z"/>
              <path class="cls-7" d="M124.77,124a52.51,52.51,0,0,0-11-1.85l-3.24,6.38a34.29,34.29,0,0,1,11,1.86Z"/>
              <path class="cls-7" d="M131.94,140.83,143,139a13.79,13.79,0,0,0-3.2-6.34l-11.06,1.87A9.24,9.24,0,0,1,131.94,140.83Z"/>
              <path class="cls-7" d="M77.16,143.22a13.79,13.79,0,0,0,3.2,6.34l11.06-1.87a9.21,9.21,0,0,1-3.2-6.33Z"/>
            </g>
          </g>
          <g>
            <path class="cls-44" d="M149.11,147.45c-12.93,7.46-33.88,7.46-46.81,0-6.46-3.73-9.69-8.62-9.69-13.51v6c0,4.89,3.23,9.78,9.69,13.51,12.93,7.46,33.88,7.46,46.81,0,6.46-3.73,9.69-8.62,9.69-13.51v-6C158.8,138.83,155.57,143.72,149.11,147.45Z"/>
            <g>
              <path class="cls-45" d="M110.25,126.22c8.54-4.93,22.38-4.93,30.91,0,4,2.31,6.13,5.29,6.38,8.32.28-3.43-1.84-6.91-6.38-9.53-8.53-4.92-22.37-4.92-30.91,0-4.53,2.62-6.65,6.1-6.37,9.53C104.13,131.51,106.25,128.53,110.25,126.22Z"/>
              <path class="cls-42" d="M110.25,142.86c8.54,4.93,22.38,4.93,30.91,0,4-2.31,6.13-5.3,6.38-8.32-.25-3-2.38-6-6.38-8.32-8.53-4.93-22.37-4.93-30.91,0-4,2.31-6.12,5.29-6.37,8.32C104.13,137.56,106.25,140.55,110.25,142.86Z"/>
              <g>
                <ellipse class="cls-46" cx="125.71" cy="135.14" rx="20.68" ry="11.94"/>
                <path class="cls-42" d="M140.33,125.49c8.08,4.66,8.08,12.23,0,16.89s-21.17,4.66-29.25,0-8.08-12.23,0-16.89S132.25,120.83,140.33,125.49Z"/>
                <path class="cls-7" d="M139.65,142c-.55.32-1.15.62-1.76.9a.62.62,0,0,1-.55,0c-.13-.1-.11-.24.06-.32a18.24,18.24,0,0,0,3.23-1.87.62.62,0,0,1,.55,0c.17.08.2.22.07.32A17.66,17.66,0,0,1,139.65,142Zm-5.71,2.28a.33.33,0,0,1-.12,0,32.41,32.41,0,0,1-4.53.82c-.22,0-.42-.06-.46-.19s.1-.24.31-.26a30,30,0,0,0,4.36-.78.51.51,0,0,1,.52.11C134.09,144.11,134.05,144.21,133.94,144.27Zm9.68-5.6a.62.62,0,0,1-.43.05c-.2-.06-.29-.19-.2-.3a8.14,8.14,0,0,0,1.35-2.52c0-.12.24-.2.46-.18s.35.14.31.26a8.18,8.18,0,0,1-1.41,2.62A.19.19,0,0,1,143.62,138.67Zm-18.78,6.57a.56.56,0,0,1-.3.06,32.69,32.69,0,0,1-4.68-.48c-.2,0-.32-.17-.25-.29s.28-.18.49-.15a31.32,31.32,0,0,0,4.49.47c.21,0,.38.12.37.24A.22.22,0,0,1,124.84,145.24Zm20.44-11.82a.57.57,0,0,1-.25.06c-.22,0-.4-.09-.42-.21a7,7,0,0,0-.82-2.59c-.06-.12.05-.25.26-.29s.43,0,.49.15a7.47,7.47,0,0,1,.86,2.7A.21.21,0,0,1,145.28,133.42ZM116,143.66a.66.66,0,0,1-.48,0,22.65,22.65,0,0,1-3.75-1.7c-.15-.08-.15-.23,0-.32h0a.66.66,0,0,1,.55,0,21.59,21.59,0,0,0,3.6,1.63c.19.06.25.2.13.31Zm26.52-15.34-.07,0a.58.58,0,0,1-.54-.08,15.23,15.23,0,0,0-2.82-2.07c-.15-.09-.18-.25,0-.34a.58.58,0,0,1,.53,0l.05,0a15.42,15.42,0,0,1,2.94,2.16C142.68,128.13,142.66,128.24,142.53,128.32Zm-33.08,11.57-.07,0a.58.58,0,0,1-.54-.08,9.8,9.8,0,0,1-2-2.5c-.07-.12.05-.25.25-.28a.5.5,0,0,1,.5.14,9.46,9.46,0,0,0,1.88,2.4A.16.16,0,0,1,109.45,139.89Zm26.47-15.37a.65.65,0,0,1-.48,0,28,28,0,0,0-4.17-1.07c-.21,0-.32-.17-.26-.28a.49.49,0,0,1,.49-.15,27.55,27.55,0,0,1,4.34,1.11c.19.07.25.2.14.31ZM106.68,134.8a.57.57,0,0,1-.25.06c-.22,0-.4-.09-.42-.21a6.72,6.72,0,0,1,.28-2.74c0-.12.24-.2.45-.18s.36.14.32.26a6.38,6.38,0,0,0-.26,2.63A.21.21,0,0,1,106.68,134.8ZM127.08,123a.56.56,0,0,1-.3.06,32.94,32.94,0,0,0-4.56.17c-.21,0-.41-.06-.45-.18s.1-.24.31-.26a34,34,0,0,1,4.74-.18c.22,0,.39.12.37.24A.2.2,0,0,1,127.08,123Zm-18.76,6.59a.59.59,0,0,1-.44.05c-.19-.05-.28-.19-.2-.3a12.51,12.51,0,0,1,2.45-2.35.59.59,0,0,1,.55,0c.18.07.21.22.07.31a12.1,12.1,0,0,0-2.35,2.26A.27.27,0,0,1,108.32,129.54Zm9.66-5.61-.11,0a24.51,24.51,0,0,0-3.9,1.38.62.62,0,0,1-.55,0c-.13-.1-.1-.24.06-.32a25.52,25.52,0,0,1,4.06-1.43.55.55,0,0,1,.52.11C118.13,123.76,118.1,123.86,118,123.93Z"/>
              </g>
              <path class="cls-42" d="M149.11,120.42a38.41,38.41,0,0,0-8.72-3.61c-1.62-.47-4.53,0-6.24-.32-2-.35-2.73-1.42-4.76-1.55a52.84,52.84,0,0,0-22.62,3.32c-1.57.63-2.06,2.25-3.46,3.06s-3.56.71-4.63,1.58c-4.79,3.89-6.74,8.59-5.87,13.15.21,1.11,1.69,1.83,2.24,2.91s.11,2.43,1,3.41a24,24,0,0,0,6.3,5.08,38.62,38.62,0,0,0,8.84,3.65c1.94.55,4.5-1.3,6.56-1,1.63.25,2.74,2.71,4.41,2.81a52.52,52.52,0,0,0,22.69-3.38c1.51-.62.91-3.46,2.26-4.24s4.71.46,5.81-.45c4.76-3.93,6.65-8.67,5.69-13.25-.22-1-2.65-1.87-3.17-2.88s.83-2.29,0-3.28A24,24,0,0,0,149.11,120.42Zm-8,22.44c-8.53,4.93-22.37,4.93-30.91,0s-8.53-12.92,0-17.85,22.38-4.92,30.91,0S149.7,137.93,141.16,142.86Z"/>
            </g>
            <g>
              <path class="cls-7" d="M114.92,123l-8.15-4.7a35.66,35.66,0,0,0-4.39,2.13,27.12,27.12,0,0,0-3.69,2.54l8.1,4.67a16.86,16.86,0,0,1,3.45-2.58A24.47,24.47,0,0,1,114.92,123Z"/>
              <path class="cls-7" d="M136.69,144.85l8.1,4.68a35.8,35.8,0,0,0,4.4-2.13,27,27,0,0,0,3.68-2.53l-8.14-4.71a16.29,16.29,0,0,1-3.56,2.7A23.61,23.61,0,0,1,136.69,144.85Z"/>
              <path class="cls-7" d="M111.13,151.1a52.51,52.51,0,0,0,11,1.85l3.23-6.39a34.73,34.73,0,0,1-11-1.83Z"/>
              <path class="cls-7" d="M140.39,116.78a52.39,52.39,0,0,0-11-1.84l-3.24,6.37a34.52,34.52,0,0,1,11,1.86Z"/>
              <path class="cls-7" d="M147.56,133.66l11-1.87a13.74,13.74,0,0,0-3.19-6.33l-11.07,1.87A9.2,9.2,0,0,1,147.56,133.66Z"/>
              <path class="cls-7" d="M92.79,136.05A13.77,13.77,0,0,0,96,142.39l11.07-1.87a9.23,9.23,0,0,1-3.21-6.33Z"/>
            </g>
          </g>
          <g>
            <path class="cls-47" d="M133.48,138.07c-12.92,7.46-33.88,7.46-46.8,0-6.47-3.73-9.7-8.62-9.7-13.51v6c0,4.89,3.23,9.78,9.7,13.51,12.92,7.46,33.88,7.46,46.8,0,6.47-3.73,9.7-8.62,9.7-13.51v-6C143.18,129.45,140,134.34,133.48,138.07Z"/>
            <g>
              <path class="cls-48" d="M94.63,116.84c8.53-4.93,22.37-4.93,30.91,0,4,2.31,6.12,5.3,6.37,8.32.29-3.43-1.84-6.91-6.37-9.53-8.54-4.92-22.38-4.92-30.91,0-4.53,2.62-6.66,6.1-6.38,9.53C88.5,122.14,90.63,119.15,94.63,116.84Z"/>
              <path class="cls-42" d="M94.63,133.48c8.53,4.93,22.37,4.93,30.91,0,4-2.31,6.12-5.29,6.37-8.32-.25-3-2.37-6-6.37-8.32-8.54-4.93-22.38-4.93-30.91,0-4,2.31-6.13,5.3-6.38,8.32C88.5,128.19,90.63,131.17,94.63,133.48Z"/>
              <g>
                <ellipse class="cls-49" cx="110.08" cy="125.76" rx="20.68" ry="11.94"/>
                <ellipse class="cls-42" cx="110.08" cy="124.56" rx="20.68" ry="11.94"/>
                <path class="cls-7" d="M124,132.61q-.84.48-1.77.9a.62.62,0,0,1-.55,0c-.13-.1-.1-.24.07-.32a17.79,17.79,0,0,0,3.22-1.87.62.62,0,0,1,.55,0c.18.08.21.22.07.32A19,19,0,0,1,124,132.61Zm-5.71,2.28-.12.05a31.16,31.16,0,0,1-4.54.82c-.21,0-.42-.06-.46-.19s.1-.24.32-.26a30.28,30.28,0,0,0,4.36-.78.54.54,0,0,1,.52.11A.17.17,0,0,1,118.32,134.89Zm9.68-5.6a.65.65,0,0,1-.44.05c-.2-.05-.28-.19-.2-.3a8.07,8.07,0,0,0,1.36-2.52c0-.12.24-.2.45-.18s.36.14.32.26a8.38,8.38,0,0,1-1.41,2.62A.27.27,0,0,1,128,129.29Zm-18.78,6.57a.7.7,0,0,1-.3.07,34.19,34.19,0,0,1-4.68-.49c-.21,0-.32-.17-.26-.29s.28-.18.49-.15a31.62,31.62,0,0,0,4.49.47c.22,0,.38.12.37.24A.23.23,0,0,1,109.22,135.86ZM129.66,124a.66.66,0,0,1-.26.06c-.21,0-.4-.09-.41-.21a7,7,0,0,0-.82-2.59c-.07-.12.05-.25.25-.29a.52.52,0,0,1,.5.15,7.44,7.44,0,0,1,.85,2.7C129.78,123.93,129.73,124,129.66,124Zm-29.28,10.24a.65.65,0,0,1-.48,0,22.9,22.9,0,0,1-3.74-1.69c-.16-.09-.16-.24,0-.32h0a.63.63,0,0,1,.55,0,20.81,20.81,0,0,0,3.6,1.63c.18.06.24.2.13.31Zm26.53-15.34-.08,0a.59.59,0,0,1-.54-.08,14.59,14.59,0,0,0-2.82-2.07c-.15-.09-.18-.25,0-.34a.56.56,0,0,1,.52,0l.06,0a15.34,15.34,0,0,1,2.93,2.16C127.06,118.75,127,118.86,126.91,118.94ZM93.83,130.51l-.08,0a.59.59,0,0,1-.54-.08,10.27,10.27,0,0,1-2-2.5c-.06-.12,0-.25.26-.28a.47.47,0,0,1,.49.14,9.92,9.92,0,0,0,1.88,2.41C94,130.33,94,130.44,93.83,130.51Zm26.47-15.37a.66.66,0,0,1-.48,0,28,28,0,0,0-4.17-1.07c-.21,0-.33-.16-.26-.28a.47.47,0,0,1,.49-.15,28.69,28.69,0,0,1,4.34,1.11c.19.07.25.21.13.31S120.32,115.12,120.3,115.14ZM91.06,125.42a.66.66,0,0,1-.26.06c-.21,0-.4-.08-.41-.21a6.72,6.72,0,0,1,.27-2.74c0-.12.25-.2.46-.18s.35.14.31.26a6.55,6.55,0,0,0-.26,2.63C91.18,125.31,91.13,125.37,91.06,125.42Zm20.39-11.85a.54.54,0,0,1-.3.06,34.49,34.49,0,0,0-4.55.17c-.21,0-.42-.06-.46-.18s.1-.24.31-.26a34.12,34.12,0,0,1,4.75-.18c.22,0,.38.12.37.24A.22.22,0,0,1,111.45,113.57ZM92.7,120.16a.6.6,0,0,1-.44,0c-.2,0-.29-.19-.2-.3a12.24,12.24,0,0,1,2.45-2.35.59.59,0,0,1,.55,0c.17.07.2.22.07.32a11.77,11.77,0,0,0-2.35,2.25A.27.27,0,0,1,92.7,120.16Zm9.66-5.61-.12,0A24.39,24.39,0,0,0,98.35,116a.64.64,0,0,1-.56,0c-.13-.1-.1-.24.07-.32a25.18,25.18,0,0,1,4.06-1.43.55.55,0,0,1,.52.11C102.51,114.38,102.47,114.48,102.36,114.55Z"/>
              </g>
              <path class="cls-42" d="M133.48,111a39,39,0,0,0-8.71-3.61c-1.62-.47-4.54,0-6.24-.32-2-.35-2.74-1.41-4.77-1.54a52.63,52.63,0,0,0-22.61,3.31c-1.57.63-2.07,2.25-3.47,3.06s-3.56.71-4.63,1.58c-4.78,3.9-6.74,8.6-5.87,13.15.22,1.11,1.69,1.83,2.24,2.91s.12,2.43,1,3.41a23.9,23.9,0,0,0,6.31,5.08,38.72,38.72,0,0,0,8.83,3.65c1.95.55,4.5-1.3,6.57-1,1.62.25,2.74,2.71,4.4,2.81a52.47,52.47,0,0,0,22.69-3.38c1.52-.62.91-3.46,2.27-4.24s4.7.46,5.8-.45c4.76-3.93,6.66-8.67,5.69-13.25-.22-1-2.65-1.87-3.16-2.88s.83-2.29,0-3.28A23.83,23.83,0,0,0,133.48,111Zm-7.94,22.44c-8.54,4.93-22.38,4.93-30.91,0s-8.54-12.92,0-17.85,22.37-4.92,30.91,0S134.07,128.55,125.54,133.48Z"/>
            </g>
            <g>
              <path class="cls-7" d="M99.29,113.57l-8.14-4.7a35.8,35.8,0,0,0-4.4,2.13,27.93,27.93,0,0,0-3.68,2.54l8.1,4.67a16.86,16.86,0,0,1,3.45-2.58A24.38,24.38,0,0,1,99.29,113.57Z"/>
              <path class="cls-7" d="M121.07,135.48l8.1,4.67a34.28,34.28,0,0,0,4.39-2.13,27.09,27.09,0,0,0,3.69-2.53l-8.15-4.7a16.58,16.58,0,0,1-3.56,2.69A24.19,24.19,0,0,1,121.07,135.48Z"/>
              <path class="cls-7" d="M95.51,141.72a52.4,52.4,0,0,0,11,1.85l3.23-6.39a34.63,34.63,0,0,1-11-1.83Z"/>
              <path class="cls-7" d="M124.77,107.4a53.17,53.17,0,0,0-11-1.84l-3.24,6.38a34.28,34.28,0,0,1,11,1.85Z"/>
              <path class="cls-7" d="M131.94,124.28l11-1.87a13.76,13.76,0,0,0-3.2-6.33L128.72,118A9.24,9.24,0,0,1,131.94,124.28Z"/>
              <path class="cls-7" d="M77.16,126.67a13.79,13.79,0,0,0,3.2,6.34l11.06-1.87a9.21,9.21,0,0,1-3.2-6.33Z"/>
            </g>
          </g>
        </g>
        <g>
          <g>
            <polygon class="cls-3" points="61.58 195.03 77.11 195.03 92.61 186.08 78.67 178.11 59.75 178.11 61.58 195.03"/>
            <g>
              <g>
                <path class="cls-50" d="M59.38,195l-12.74-7.35c-.42-.68-.66-1.06-1.09-1.73V173.21l1.09-.46,12.74,7.35,1.1,1.73v12.74Z"/>
                <path class="cls-51" d="M46.59,185.51V174.85l1.09-.47,10.66,6.16,1.1,1.73v10.66l-1.1.46-10.66-6.15Z"/>
                <g>
                  <path class="cls-22" d="M56.79,183.34a2.93,2.93,0,0,1-1.41-2.23c0-.77.63-1,1.41-.59a2.91,2.91,0,0,1,1.41,2.22C58.2,183.52,57.57,183.78,56.79,183.34Z"/>
                  <path class="cls-22" d="M49.24,179a2.91,2.91,0,0,1-1.41-2.22c0-.78.63-1,1.41-.59a2.93,2.93,0,0,1,1.4,2.22C50.64,179.16,50,179.42,49.24,179Z"/>
                  <path class="cls-22" d="M56.79,191.62a2.91,2.91,0,0,1-1.41-2.22c0-.78.63-1.05,1.41-.6A2.93,2.93,0,0,1,58.2,191C58.2,191.8,57.57,192.07,56.79,191.62Z"/>
                  <path class="cls-22" d="M52.94,185.17A2.92,2.92,0,0,1,51.53,183c0-.77.64-1,1.41-.59a2.91,2.91,0,0,1,1.41,2.22C54.35,185.36,53.72,185.62,52.94,185.17Z"/>
                  <path class="cls-22" d="M49.24,187.26A2.93,2.93,0,0,1,47.83,185c0-.78.63-1,1.41-.6a2.93,2.93,0,0,1,1.4,2.22C50.64,187.44,50,187.71,49.24,187.26Z"/>
                </g>
              </g>
              <g>
                <path class="cls-52" d="M74.31,172.75,61.58,180.1h-2.2l-12.74-7.35v-1.27l12.74-7.35h2.2l12.73,7.35Z"/>
                <path class="cls-53" d="M59.38,178.9l-10.66-6.15v-1.27l10.66-6.16h2.2l10.66,6.16v1.27L61.58,178.9Z"/>
                <path class="cls-22" d="M61.73,172.92a3.09,3.09,0,0,1-2.81,0,.86.86,0,0,1,0-1.63,3.09,3.09,0,0,1,2.81,0A.86.86,0,0,1,61.73,172.92Z"/>
              </g>
              <g>
                <path class="cls-54" d="M74.31,187.68,61.58,195l-1.1-.46V181.83l1.1-1.73,12.73-7.35,1.1.46V186Z"/>
                <path class="cls-55" d="M61.52,192.93V182.27c.42-.68.66-1.06,1.09-1.73l10.67-6.16,1.09.47v10.66c-.43.67-.67,1.05-1.09,1.73l-10.67,6.15Z"/>
                <g>
                  <path class="cls-22" d="M64.17,183.34c-.78.44-1.41.18-1.41-.6a2.91,2.91,0,0,1,1.41-2.22c.77-.45,1.4-.18,1.4.59A2.94,2.94,0,0,1,64.17,183.34Z"/>
                  <path class="cls-22" d="M71.72,187.26c-.78.45-1.41.18-1.41-.6a2.91,2.91,0,0,1,1.41-2.22c.78-.45,1.41-.18,1.41.6A2.93,2.93,0,0,1,71.72,187.26Z"/>
                  <path class="cls-22" d="M67.87,185.26c-.77.44-1.4.18-1.4-.6a2.93,2.93,0,0,1,1.4-2.22c.78-.45,1.41-.18,1.41.59A2.93,2.93,0,0,1,67.87,185.26Z"/>
                </g>
              </g>
              <polygon class="cls-53" points="46.64 171.48 45.55 173.21 46.64 172.75 46.64 171.48"/>
              <polygon class="cls-51" points="59.38 180.1 60.48 181.83 61.58 180.1 59.38 180.1"/>
              <polygon class="cls-55" points="74.31 171.48 75.41 173.21 74.31 172.75 74.31 171.48"/>
              <polygon class="cls-56" points="60.48 194.57 59.38 195.03 61.58 195.03 60.48 194.57"/>
            </g>
          </g>
          <g>
            <polygon class="cls-3" points="86.61 202.46 102.14 202.46 117.64 193.51 103.7 185.54 84.78 185.54 86.61 202.46"/>
            <g>
              <g>
                <path class="cls-50" d="M84.41,202.45,71.68,195.1l-1.1-1.73V180.63l1.1-.46,12.73,7.35,1.1,1.73V202Z"/>
                <path class="cls-51" d="M71.62,192.93V182.27l1.09-.46L83.38,188c.42.68.66,1.06,1.09,1.73v10.67l-1.09.46-10.67-6.16C72.28,194,72,193.61,71.62,192.93Z"/>
                <g>
                  <path class="cls-22" d="M81.82,190.76a2.94,2.94,0,0,1-1.41-2.22c0-.78.64-1,1.41-.6a2.93,2.93,0,0,1,1.41,2.22C83.23,190.94,82.6,191.21,81.82,190.76Z"/>
                  <path class="cls-22" d="M74.27,186.4a2.93,2.93,0,0,1-1.41-2.22c0-.78.63-1.05,1.41-.6a2.93,2.93,0,0,1,1.4,2.22C75.67,186.58,75,186.85,74.27,186.4Z"/>
                  <path class="cls-22" d="M81.82,199a2.94,2.94,0,0,1-1.41-2.22c0-.77.64-1,1.41-.59a2.91,2.91,0,0,1,1.41,2.22C83.23,199.23,82.6,199.49,81.82,199Z"/>
                  <path class="cls-22" d="M74.27,194.68a2.91,2.91,0,0,1-1.41-2.22c0-.78.63-1,1.41-.59a2.91,2.91,0,0,1,1.4,2.22C75.67,194.86,75,195.13,74.27,194.68Z"/>
                </g>
              </g>
              <g>
                <path class="cls-52" d="M99.34,180.17l-12.73,7.35h-2.2l-12.73-7.35V178.9l12.73-7.35h2.2l12.73,7.35Z"/>
                <path class="cls-53" d="M84.41,186.33l-10.66-6.16V178.9l10.66-6.15h2.2l10.66,6.15v1.27l-10.66,6.16Z"/>
                <g>
                  <path class="cls-22" d="M86.74,175.78a3.09,3.09,0,0,1-2.81,0,.86.86,0,0,1,0-1.63,3.09,3.09,0,0,1,2.81,0A.86.86,0,0,1,86.74,175.78Z"/>
                  <path class="cls-22" d="M86.77,180.34a3.11,3.11,0,0,1-2.82,0,.85.85,0,0,1,0-1.62,3.11,3.11,0,0,1,2.82,0A.86.86,0,0,1,86.77,180.34Z"/>
                  <path class="cls-22" d="M86.77,184.92a3.11,3.11,0,0,1-2.82,0,.85.85,0,0,1,0-1.62,3.11,3.11,0,0,1,2.82,0A.86.86,0,0,1,86.77,184.92Z"/>
                </g>
              </g>
              <g>
                <path class="cls-54" d="M99.34,195.1l-12.73,7.35-1.1-.46V189.25l1.1-1.73,12.73-7.35,1.1.46v12.74Z"/>
                <path class="cls-55" d="M86.55,200.36V189.69L87.64,188l10.67-6.15,1.09.46v10.66c-.42.68-.66,1.06-1.09,1.73l-10.67,6.16Z"/>
                <g>
                  <path class="cls-22" d="M89.2,190.76c-.78.45-1.41.18-1.41-.6a2.93,2.93,0,0,1,1.41-2.22c.78-.45,1.41-.18,1.41.6A2.91,2.91,0,0,1,89.2,190.76Z"/>
                  <path class="cls-22" d="M96.75,194.68c-.77.45-1.4.18-1.4-.59a2.91,2.91,0,0,1,1.4-2.22c.78-.45,1.41-.19,1.41.59A2.91,2.91,0,0,1,96.75,194.68Z"/>
                </g>
              </g>
              <polygon class="cls-53" points="71.68 178.9 70.58 180.63 71.68 180.17 71.68 178.9"/>
              <polygon class="cls-51" points="84.41 187.52 85.51 189.25 86.61 187.52 84.41 187.52"/>
              <polygon class="cls-55" points="99.34 178.9 100.44 180.63 99.34 180.17 99.34 178.9"/>
              <polygon class="cls-56" points="85.51 201.99 84.41 202.46 86.61 202.46 85.51 201.99"/>
            </g>
          </g>
        </g>
      </g>
    </g>
  </g>
</svg>
