<?xml version="1.0" encoding="UTF-8" standalone="no"?>
<!DOCTYPE svg PUBLIC "-//W3C//DTD SVG 1.1//EN"
 "http://www.w3.org/Graphics/SVG/1.1/DTD/svg11.dtd">
<!-- Generated by graphviz version 5.0.0 (20220707.1540)
 -->
<!-- Title: dependencies Pages: 1 -->
<svg width="1708pt" height="329pt"
 viewBox="0.00 0.00 1708.00 328.80" xmlns="http://www.w3.org/2000/svg" xmlns:xlink="http://www.w3.org/1999/xlink">
<g id="graph0" class="graph" transform="scale(1 1) rotate(0) translate(4 324.8)">
<title>dependencies</title>
<polygon fill="white" stroke="transparent" points="-4,4 -4,-324.8 1704,-324.8 1704,4 -4,4"/>
<text text-anchor="middle" x="850" y="-8.2" font-family="sans-serif" font-size="14.00">dependencies</text>
<g id="clust1" class="cluster">
<title>cluster_AppModule</title>
<polygon fill="none" stroke="black" stroke-dasharray="1,5" points="1290,-108.8 1290,-312.8 1692,-312.8 1692,-108.8 1290,-108.8"/>
</g>
<g id="clust2" class="cluster">
<title>cluster_AppModule_declarations</title>
<polygon fill="none" stroke="black" points="1562,-116.8 1562,-168.8 1684,-168.8 1684,-116.8 1562,-116.8"/>
</g>
<g id="clust4" class="cluster">
<title>cluster_AppModule_imports</title>
<polygon fill="none" stroke="black" points="1298,-116.8 1298,-168.8 1554,-168.8 1554,-116.8 1298,-116.8"/>
</g>
<g id="clust6" class="cluster">
<title>cluster_AppModule_bootstrap</title>
<polygon fill="none" stroke="black" points="1420,-252.8 1420,-304.8 1544,-304.8 1544,-252.8 1420,-252.8"/>
</g>
<g id="clust14" class="cluster">
<title>cluster_GameModule</title>
<polygon fill="none" stroke="black" stroke-dasharray="1,5" points="8,-32.8 8,-244.8 594,-244.8 594,-32.8 8,-32.8"/>
</g>
<g id="clust15" class="cluster">
<title>cluster_GameModule_declarations</title>
<polygon fill="none" stroke="black" points="16,-40.8 16,-92.8 464,-92.8 464,-40.8 16,-40.8"/>
</g>
<g id="clust19" class="cluster">
<title>cluster_GameModule_imports</title>
<polygon fill="none" stroke="black" points="472,-40.8 472,-92.8 586,-92.8 586,-40.8 472,-40.8"/>
</g>
<g id="clust20" class="cluster">
<title>cluster_GameModule_exports</title>
<polygon fill="none" stroke="black" points="133,-184.8 133,-236.8 464,-236.8 464,-184.8 133,-184.8"/>
</g>
<g id="clust23" class="cluster">
<title>cluster_HomeModule</title>
<polygon fill="none" stroke="black" stroke-dasharray="1,5" points="1279,-32.8 1279,-100.8 1427,-100.8 1427,-32.8 1279,-32.8"/>
</g>
<g id="clust24" class="cluster">
<title>cluster_HomeModule_declarations</title>
<polygon fill="none" stroke="black" points="1287,-40.8 1287,-92.8 1419,-92.8 1419,-40.8 1287,-40.8"/>
</g>
<g id="clust30" class="cluster">
<title>cluster_SharedModule</title>
<polygon fill="none" stroke="black" stroke-dasharray="1,5" points="602,-108.8 602,-176.8 1282,-176.8 1282,-108.8 602,-108.8"/>
</g>
<g id="clust31" class="cluster">
<title>cluster_SharedModule_declarations</title>
<polygon fill="none" stroke="black" points="950,-116.8 950,-168.8 1274,-168.8 1274,-116.8 950,-116.8"/>
</g>
<g id="clust35" class="cluster">
<title>cluster_SharedModule_exports</title>
<polygon fill="none" stroke="black" points="610,-116.8 610,-168.8 942,-168.8 942,-116.8 610,-116.8"/>
</g>
<!-- AppComponent -->
<g id="node1" class="node">
<title>AppComponent</title>
<polygon fill="#ffffb3" stroke="black" points="1675.94,-160.8 1570.06,-160.8 1570.06,-124.8 1675.94,-124.8 1675.94,-160.8"/>
<text text-anchor="middle" x="1623" y="-138.6" font-family="Times,serif" font-size="14.00">AppComponent</text>
</g>
<!-- AppModule -->
<g id="node2" class="node">
<title>AppModule</title>
<polygon fill="#8dd3c7" stroke="black" points="1523.66,-228.8 1520.66,-232.8 1499.66,-232.8 1496.66,-228.8 1440.34,-228.8 1440.34,-192.8 1523.66,-192.8 1523.66,-228.8"/>
<text text-anchor="middle" x="1482" y="-206.6" font-family="Times,serif" font-size="14.00">AppModule</text>
</g>
<!-- AppComponent&#45;&gt;AppModule -->
<g id="edge1" class="edge">
<title>AppComponent&#45;&gt;AppModule</title>
<path fill="none" stroke="black" d="M1623,-161.02C1623,-181.17 1623,-210.8 1623,-210.8 1623,-210.8 1533.92,-210.8 1533.92,-210.8"/>
<polygon fill="black" stroke="black" points="1533.92,-207.3 1523.92,-210.8 1533.92,-214.3 1533.92,-207.3"/>
</g>
<!-- AppComponent  -->
<g id="node5" class="node">
<title>AppComponent </title>
<polygon fill="#80b1d3" stroke="black" points="1536.44,-296.8 1427.56,-296.8 1427.56,-260.8 1536.44,-260.8 1536.44,-296.8"/>
<text text-anchor="middle" x="1482" y="-274.6" font-family="Times,serif" font-size="14.00">AppComponent </text>
</g>
<!-- AppModule&#45;&gt;AppComponent  -->
<g id="edge4" class="edge">
<title>AppModule&#45;&gt;AppComponent </title>
<path fill="none" stroke="black" stroke-dasharray="1,5" d="M1482,-229.02C1482,-229.02 1482,-250.53 1482,-250.53"/>
<polygon fill="black" stroke="black" points="1478.5,-250.53 1482,-260.53 1485.5,-250.53 1478.5,-250.53"/>
</g>
<!-- AppRoutingModule -->
<g id="node3" class="node">
<title>AppRoutingModule</title>
<polygon fill="#8dd3c7" stroke="black" points="1546.28,-160.8 1543.28,-164.8 1522.28,-164.8 1519.28,-160.8 1417.72,-160.8 1417.72,-124.8 1546.28,-124.8 1546.28,-160.8"/>
<text text-anchor="middle" x="1482" y="-138.6" font-family="Times,serif" font-size="14.00">AppRoutingModule</text>
</g>
<!-- AppRoutingModule&#45;&gt;AppModule -->
<g id="edge2" class="edge">
<title>AppRoutingModule&#45;&gt;AppModule</title>
<path fill="none" stroke="black" d="M1482,-161.02C1482,-161.02 1482,-182.53 1482,-182.53"/>
<polygon fill="black" stroke="black" points="1478.5,-182.53 1482,-192.53 1485.5,-182.53 1478.5,-182.53"/>
</g>
<!-- HomeModule -->
<g id="node4" class="node">
<title>HomeModule</title>
<polygon fill="#8dd3c7" stroke="black" points="1399.77,-160.8 1396.77,-164.8 1375.77,-164.8 1372.77,-160.8 1306.23,-160.8 1306.23,-124.8 1399.77,-124.8 1399.77,-160.8"/>
<text text-anchor="middle" x="1353" y="-138.6" font-family="Times,serif" font-size="14.00">HomeModule</text>
</g>
<!-- HomeModule&#45;&gt;AppModule -->
<g id="edge3" class="edge">
<title>HomeModule&#45;&gt;AppModule</title>
<path fill="none" stroke="black" d="M1353,-161.02C1353,-181.17 1353,-210.8 1353,-210.8 1353,-210.8 1430.12,-210.8 1430.12,-210.8"/>
<polygon fill="black" stroke="black" points="1430.12,-214.3 1440.12,-210.8 1430.12,-207.3 1430.12,-214.3"/>
</g>
<!-- DiscComponent -->
<g id="node6" class="node">
<title>DiscComponent</title>
<polygon fill="#ffffb3" stroke="black" points="456.49,-84.8 349.51,-84.8 349.51,-48.8 456.49,-48.8 456.49,-84.8"/>
<text text-anchor="middle" x="403" y="-62.6" font-family="Times,serif" font-size="14.00">DiscComponent</text>
</g>
<!-- GameModule -->
<g id="node9" class="node">
<title>GameModule</title>
<polygon fill="#8dd3c7" stroke="black" points="329.48,-160.8 326.48,-164.8 305.48,-164.8 302.48,-160.8 236.52,-160.8 236.52,-124.8 329.48,-124.8 329.48,-160.8"/>
<text text-anchor="middle" x="283" y="-138.6" font-family="Times,serif" font-size="14.00">GameModule</text>
</g>
<!-- DiscComponent&#45;&gt;GameModule -->
<g id="edge5" class="edge">
<title>DiscComponent&#45;&gt;GameModule</title>
<path fill="none" stroke="black" d="M402.98,-84.81C402.98,-107.29 402.98,-142.8 402.98,-142.8 402.98,-142.8 339.73,-142.8 339.73,-142.8"/>
<polygon fill="black" stroke="black" points="339.73,-139.3 329.73,-142.8 339.73,-146.3 339.73,-139.3"/>
</g>
<!-- EndGameDialogComponent -->
<g id="node7" class="node">
<title>EndGameDialogComponent</title>
<polygon fill="#ffffb3" stroke="black" points="331.91,-84.8 156.09,-84.8 156.09,-48.8 331.91,-48.8 331.91,-84.8"/>
<text text-anchor="middle" x="244" y="-62.6" font-family="Times,serif" font-size="14.00">EndGameDialogComponent</text>
</g>
<!-- EndGameDialogComponent&#45;&gt;GameModule -->
<g id="edge6" class="edge">
<title>EndGameDialogComponent&#45;&gt;GameModule</title>
<path fill="none" stroke="black" d="M283,-84.81C283,-84.81 283,-114.65 283,-114.65"/>
<polygon fill="black" stroke="black" points="279.5,-114.65 283,-124.65 286.5,-114.65 279.5,-114.65"/>
</g>
<!-- GameComponent -->
<g id="node8" class="node">
<title>GameComponent</title>
<polygon fill="#ffffb3" stroke="black" points="138.26,-84.8 23.74,-84.8 23.74,-48.8 138.26,-48.8 138.26,-84.8"/>
<text text-anchor="middle" x="81" y="-62.6" font-family="Times,serif" font-size="14.00">GameComponent</text>
</g>
<!-- GameComponent&#45;&gt;GameModule -->
<g id="edge7" class="edge">
<title>GameComponent&#45;&gt;GameModule</title>
<path fill="none" stroke="black" d="M81,-84.81C81,-107.29 81,-142.8 81,-142.8 81,-142.8 226.4,-142.8 226.4,-142.8"/>
<polygon fill="black" stroke="black" points="226.4,-146.3 236.4,-142.8 226.4,-139.3 226.4,-146.3"/>
</g>
<!-- EndGameDialogComponent  -->
<g id="node11" class="node">
<title>EndGameDialogComponent </title>
<polygon fill="#fb8072" stroke="black" points="456.41,-228.8 277.59,-228.8 277.59,-192.8 456.41,-192.8 456.41,-228.8"/>
<text text-anchor="middle" x="367" y="-206.6" font-family="Times,serif" font-size="14.00">EndGameDialogComponent </text>
</g>
<!-- GameModule&#45;&gt;EndGameDialogComponent  -->
<g id="edge9" class="edge">
<title>GameModule&#45;&gt;EndGameDialogComponent </title>
<path fill="none" stroke="black" stroke-dasharray="5,2" d="M303.52,-161.02C303.52,-161.02 303.52,-182.53 303.52,-182.53"/>
<polygon fill="black" stroke="black" points="300.02,-182.53 303.52,-192.53 307.02,-182.53 300.02,-182.53"/>
</g>
<!-- GameComponent  -->
<g id="node12" class="node">
<title>GameComponent </title>
<polygon fill="#fb8072" stroke="black" points="259.26,-228.8 140.74,-228.8 140.74,-192.8 259.26,-192.8 259.26,-228.8"/>
<text text-anchor="middle" x="200" y="-206.6" font-family="Times,serif" font-size="14.00">GameComponent </text>
</g>
<!-- GameModule&#45;&gt;GameComponent  -->
<g id="edge10" class="edge">
<title>GameModule&#45;&gt;GameComponent </title>
<path fill="none" stroke="black" stroke-dasharray="5,2" d="M247.82,-161.02C247.82,-161.02 247.82,-182.53 247.82,-182.53"/>
<polygon fill="black" stroke="black" points="244.32,-182.53 247.82,-192.53 251.32,-182.53 244.32,-182.53"/>
</g>
<!-- SharedModule -->
<g id="node10" class="node">
<title>SharedModule</title>
<polygon fill="#8dd3c7" stroke="black" points="578.43,-84.8 575.43,-88.8 554.43,-88.8 551.43,-84.8 479.57,-84.8 479.57,-48.8 578.43,-48.8 578.43,-84.8"/>
<text text-anchor="middle" x="529" y="-62.6" font-family="Times,serif" font-size="14.00">SharedModule</text>
</g>
<!-- SharedModule&#45;&gt;HomeModule -->
<g id="edge12" class="edge">
<title>SharedModule&#45;&gt;HomeModule</title>
<path fill="none" stroke="black" d="M578.32,-56.8C745.57,-56.8 1280.75,-56.8 1280.75,-56.8 1280.75,-56.8 1280.75,-142.8 1280.75,-142.8 1280.75,-142.8 1296.02,-142.8 1296.02,-142.8"/>
<polygon fill="black" stroke="black" points="1296.02,-146.3 1306.02,-142.8 1296.02,-139.3 1296.02,-146.3"/>
</g>
<!-- SharedModule&#45;&gt;GameModule -->
<g id="edge8" class="edge">
<title>SharedModule&#45;&gt;GameModule</title>
<path fill="none" stroke="black" d="M512.6,-84.83C512.6,-109.78 512.6,-151.8 512.6,-151.8 512.6,-151.8 339.74,-151.8 339.74,-151.8"/>
<polygon fill="black" stroke="black" points="339.74,-148.3 329.74,-151.8 339.74,-155.3 339.74,-148.3"/>
</g>
<!-- SettingsDialogComponent  -->
<g id="node16" class="node">
<title>SettingsDialogComponent </title>
<polygon fill="#fb8072" stroke="black" points="934.05,-160.8 765.95,-160.8 765.95,-124.8 934.05,-124.8 934.05,-160.8"/>
<text text-anchor="middle" x="850" y="-138.6" font-family="Times,serif" font-size="14.00">SettingsDialogComponent </text>
</g>
<!-- SharedModule&#45;&gt;SettingsDialogComponent  -->
<g id="edge15" class="edge">
<title>SharedModule&#45;&gt;SettingsDialogComponent </title>
<path fill="none" stroke="black" stroke-dasharray="5,2" d="M578.45,-77.8C668.5,-77.8 850,-77.8 850,-77.8 850,-77.8 850,-114.69 850,-114.69"/>
<polygon fill="black" stroke="black" points="846.5,-114.69 850,-124.69 853.5,-114.69 846.5,-114.69"/>
</g>
<!-- ToolbarComponent  -->
<g id="node17" class="node">
<title>ToolbarComponent </title>
<polygon fill="#fb8072" stroke="black" points="747.65,-160.8 618.35,-160.8 618.35,-124.8 747.65,-124.8 747.65,-160.8"/>
<text text-anchor="middle" x="683" y="-138.6" font-family="Times,serif" font-size="14.00">ToolbarComponent </text>
</g>
<!-- SharedModule&#45;&gt;ToolbarComponent  -->
<g id="edge16" class="edge">
<title>SharedModule&#45;&gt;ToolbarComponent </title>
<path fill="none" stroke="black" stroke-dasharray="5,2" d="M545.4,-85.11C545.4,-104.95 545.4,-133.8 545.4,-133.8 545.4,-133.8 608.23,-133.8 608.23,-133.8"/>
<polygon fill="black" stroke="black" points="608.23,-137.3 618.23,-133.8 608.23,-130.3 608.23,-137.3"/>
</g>
<!-- HomeComponent -->
<g id="node13" class="node">
<title>HomeComponent</title>
<polygon fill="#ffffb3" stroke="black" points="1410.55,-84.8 1295.45,-84.8 1295.45,-48.8 1410.55,-48.8 1410.55,-84.8"/>
<text text-anchor="middle" x="1353" y="-62.6" font-family="Times,serif" font-size="14.00">HomeComponent</text>
</g>
<!-- HomeComponent&#45;&gt;HomeModule -->
<g id="edge11" class="edge">
<title>HomeComponent&#45;&gt;HomeModule</title>
<path fill="none" stroke="black" d="M1353,-84.81C1353,-84.81 1353,-114.65 1353,-114.65"/>
<polygon fill="black" stroke="black" points="1349.5,-114.65 1353,-124.65 1356.5,-114.65 1349.5,-114.65"/>
</g>
<!-- SettingsDialogComponent -->
<g id="node14" class="node">
<title>SettingsDialogComponent</title>
<polygon fill="#ffffb3" stroke="black" points="1266.05,-160.8 1101.95,-160.8 1101.95,-124.8 1266.05,-124.8 1266.05,-160.8"/>
<text text-anchor="middle" x="1184" y="-138.6" font-family="Times,serif" font-size="14.00">SettingsDialogComponent</text>
</g>
<!-- SettingsDialogComponent&#45;&gt;SharedModule -->
<g id="edge13" class="edge">
<title>SettingsDialogComponent&#45;&gt;SharedModule</title>
<path fill="none" stroke="black" d="M1184,-124.48C1184,-101.14 1184,-63.8 1184,-63.8 1184,-63.8 588.23,-63.8 588.23,-63.8"/>
<polygon fill="black" stroke="black" points="588.23,-60.3 578.23,-63.8 588.23,-67.3 588.23,-60.3"/>
</g>
<!-- ToolbarComponent -->
<g id="node15" class="node">
<title>ToolbarComponent</title>
<polygon fill="#ffffb3" stroke="black" points="1083.65,-160.8 958.35,-160.8 958.35,-124.8 1083.65,-124.8 1083.65,-160.8"/>
<text text-anchor="middle" x="1021" y="-138.6" font-family="Times,serif" font-size="14.00">ToolbarComponent</text>
</g>
<!-- ToolbarComponent&#45;&gt;SharedModule -->
<g id="edge14" class="edge">
<title>ToolbarComponent&#45;&gt;SharedModule</title>
<path fill="none" stroke="black" d="M1021,-124.63C1021,-103.3 1021,-70.8 1021,-70.8 1021,-70.8 588.43,-70.8 588.43,-70.8"/>
<polygon fill="black" stroke="black" points="588.43,-67.3 578.43,-70.8 588.43,-74.3 588.43,-67.3"/>
</g>
</g>
</svg>
